<svg width="1145" height="816" viewBox="0 0 1145 816" fill="none" xmlns="http://www.w3.org/2000/svg">
<path d="M1.40001 412.2L93.6 815.3H1101L1143.6 482C1144.5 474.8 1144 467.4 1142.1 460.4L1053.5 140C1047.7 119 1030 103.4 1008.5 100.2L333.9 1.20002C314.4 -1.69998 294.9 6.10003 282.7 21.6L11.8 365.9C1.50002 379 -2.29999 396 1.40001 412.2Z" fill="#F4F4F4"/>
<path d="M804.1 156.8V447.2L1137 442.2L1058.2 156.8H804.1Z" fill="#EAEAEA"/>
<path d="M693.7 535.4H351.2C344.9 535.4 339.8 530.3 339.8 524V324.8H693.7C700 324.8 705.1 329.9 705.1 336.2V524C705.1 530.3 700 535.4 693.7 535.4Z" fill="#B2B6BB"/>
<path d="M349.8 535.4H297.6C291.3 535.4 286.2 530.3 286.2 524V336.1C286.2 329.8 291.3 324.7 297.6 324.7H349.8C356.1 324.7 361.2 329.8 361.2 336.1V524C361.2 530.3 356.1 535.4 349.8 535.4Z" fill="#868A91"/>
<path d="M698.2 814.8H866.6V496.3C866.6 490 861.5 484.9 855.2 484.9H709.6C703.3 484.9 698.2 490 698.2 496.3V814.8Z" fill="#868A91"/>
<path d="M829 814.8H904V496.3C904 490 898.9 484.9 892.6 484.9H840.4C834.1 484.9 829 490 829 496.3V814.8Z" fill="#B2B6BB"/>
<path d="M829.63 669.727V594.727H450.734V669.727H829.63Z" fill="#B2B6BB"/>
<path opacity="0.2" d="M468.668 669.692V594.692H458.068V669.692H468.668Z" fill="black"/>
<path d="M873.4 765.8L877 771.4C881.7 778.8 888.9 784.4 897.2 787.1L942.7 803.2C946.8 804.5 946.3 810.5 942 810.5H936.3C935.6 811.5 934.4 812.1 933.1 812.1C931.9 812.1 930.5 811.5 929.6 810.7C929.5 810.6 929.4 810.6 929.3 810.5H928.5C928.4 810.6 928.2 810.6 928.1 810.8C927.4 811.6 926.3 812.2 925.1 812.2C924 812.2 922.7 811.7 921.8 811C921.4 810.6 920.7 810.7 920.4 811.1C919.8 811.8 919 812.2 918 812.2C917.1 812.2 916 811.8 915.2 811.2C914.8 810.9 914.2 811 913.9 811.3C913.3 811.8 912.6 812.2 911.7 812.2C910.5 812.2 909.5 811.5 909 810.6H908.6L852.3 809.7C846.9 809.6 842.9 807.9 840.6 803.7L829 782.9L873.4 765.8Z" fill="#FC9D9D"/>
<path opacity="0.15" d="M829 782.8L873.2 765.7L847.1 783.1C845.5 784.2 845 786.3 845.9 787.9L852.1 799.3C854.2 803 857.6 804.8 862.2 805.2C863.2 805.3 864.2 805.2 865.1 805C871.3 803.6 877.7 803 884.1 803.3C893.8 796.6 899.9 788 899.9 788L908.2 790.1L918 808.4L908.4 808.5L914.8 810.8C914.5 810.7 914.1 810.8 913.8 811.1C913.2 811.6 912.5 812 911.6 812C910.4 812 909.4 811.3 908.9 810.4H908.5L852.2 809.5C846.8 809.4 842.8 807.7 840.5 803.5L829 782.8Z" fill="black"/>
<path d="M626.2 519.9L606.2 382.1C604.1 367.9 593.6 356.4 579.7 353.1L526.2 340.4L472.3 340.9L422.5 352.8C404.8 357 393.3 374.1 396 392.1L401.8 430.3L411.6 451.5C412.1 452.7 412.4 453.9 412.7 455.1L421.8 504.8C423.4 513.6 431.1 519.9 440 519.9H626.2Z" fill="#22A5E6"/>
<path d="M595.2 381.2C594.5 381.2 593.8 380.7 593.7 379.9L593 375.1C592.9 374.3 593.4 373.5 594.3 373.4C595.1 373.3 595.9 373.8 596 374.7L596.7 379.5C596.8 380.3 596.3 381.1 595.4 381.2C595.4 381.2 595.3 381.2 595.2 381.2Z" fill="white"/>
<path d="M537.3 436C536.5 436 535.9 435.4 535.8 434.6L535.3 429.7C535.2 428.9 535.8 428.1 536.7 428.1C537.5 428 538.3 428.6 538.3 429.5L538.8 434.4C538.9 435.2 538.3 436 537.4 436H537.3Z" fill="white"/>
<path d="M456.6 379.8C455.8 379.8 455.2 379.2 455.1 378.4L454.6 373.5C454.5 372.7 455.1 371.9 456 371.9C456.8 371.8 457.6 372.4 457.6 373.3L458.1 378.2C458.2 379 457.6 379.8 456.7 379.8C456.7 379.7 456.6 379.8 456.6 379.8Z" fill="white"/>
<path d="M412.5 369.8C411.9 369.4 411.7 368.5 412 367.8L414.4 363.5C414.8 362.8 415.7 362.5 416.4 362.9C417.1 363.3 417.4 364.2 417 364.9L414.6 369.2C414.2 369.9 413.3 370.2 412.6 369.8C412.5 369.9 412.5 369.9 412.5 369.8Z" fill="white"/>
<path d="M490.5 447C490.2 447 489.8 446.9 489.6 446.7C489 446.2 488.9 445.2 489.4 444.6L492.5 440.8C493 440.2 494 440.1 494.6 440.6C495.2 441.1 495.3 442.1 494.8 442.7L491.7 446.5C491.3 446.8 490.9 447 490.5 447Z" fill="white"/>
<path d="M560.1 359.9C559.8 359.9 559.4 359.8 559.1 359.5C558.5 359 558.4 358 558.9 357.4L561.8 353.9C562.3 353.3 563.3 353.2 563.9 353.7C564.5 354.2 564.6 355.2 564.1 355.8L561.2 359.3C560.9 359.7 560.5 359.9 560.1 359.9Z" fill="white"/>
<path d="M491.1 402.2C490.6 402.2 490.1 401.9 489.8 401.5L487.4 397.6C487 396.9 487.2 396 487.9 395.5C488.6 395.1 489.5 395.3 490 396L492.4 399.9C492.8 400.6 492.6 401.5 491.9 402C491.6 402.1 491.3 402.2 491.1 402.2Z" fill="white"/>
<path d="M436.7 410C436.6 410 436.5 410 436.4 410L432 408.9C431.2 408.7 430.7 407.9 430.9 407.1C431.1 406.3 431.9 405.8 432.7 406L437.1 407.1C437.9 407.3 438.4 408.1 438.2 408.9C438 409.6 437.3 410 436.7 410Z" fill="white"/>
<path d="M569.5 462.6C569.2 462.6 568.8 462.5 568.5 462.2C567.9 461.7 567.8 460.7 568.3 460.1L571.2 456.6C571.7 456 572.7 455.9 573.3 456.4C573.9 456.9 574 457.9 573.5 458.5L570.6 462C570.4 462.5 569.9 462.6 569.5 462.6Z" fill="white"/>
<path d="M560.1 404.4C560 404.4 559.8 404.4 559.7 404.3L554.8 402.8C554 402.6 553.6 401.7 553.8 400.9C554 400.1 554.9 399.7 555.7 399.9L560.6 401.4C561.4 401.6 561.8 402.5 561.6 403.3C561.4 404 560.8 404.4 560.1 404.4Z" fill="white"/>
<path d="M597.9 440C597.8 439.9 597.7 439.8 597.6 439.7L594.7 435.4C594.2 434.7 594.4 433.8 595.1 433.3C595.8 432.8 596.7 433 597.2 433.7L600.1 438C600.6 438.7 600.4 439.6 599.7 440.1C599.1 440.5 598.4 440.4 597.9 440Z" fill="white"/>
<path d="M828.4 680.7C828.1 680.7 827.8 680.5 827.8 680.2V545.9C827.8 545.6 828.1 545.4 828.4 545.4C828.7 545.4 829 545.6 829 545.9V680.2C829 680.5 828.7 680.7 828.4 680.7Z" fill="#868A91"/>
<path d="M528 377.3C527.9 377.3 527.7 377.3 527.6 377.2L522.7 375.7C521.9 375.5 521.5 374.6 521.7 373.8C521.9 373 522.8 372.6 523.6 372.8L528.5 374.3C529.3 374.5 529.7 375.4 529.5 376.2C529.2 376.9 528.6 377.3 528 377.3Z" fill="white"/>
<path d="M523.8 476.8C523.7 476.8 523.5 476.8 523.4 476.7L518.5 475.2C517.7 475 517.3 474.1 517.5 473.3C517.7 472.5 518.6 472.1 519.4 472.3L524.3 473.8C525.1 474 525.5 474.9 525.3 475.7C525 476.4 524.4 476.8 523.8 476.8Z" fill="white"/>
<path opacity="0.2" d="M459.7 473.3L451.8 395.6C451.7 394.6 453.1 394.3 453.4 395.3L478 476L459.7 473.3Z" fill="black"/>
<path opacity="0.2" d="M570.6 504.5L570.7 504.4L570.9 504.6L570.6 504.5Z" fill="black"/>
<path d="M606.6 509.2C605.6 510.4 603.8 510.7 602.5 509.7L584.8 496.7L607.3 507C607.4 507.8 607.1 508.6 606.6 509.2Z" fill="#868A91"/>
<path d="M873.3 765.8L829 782.9L722.6 594.7H536.9V519.9H750.3C763.5 519.9 775.4 527.9 780.4 540.1L873.3 765.8Z" fill="#3F4249"/>
<path opacity="0.2" d="M850.4 774.6L829 782.9L722.6 594.7H536.9V519.9H713.5C726.7 519.9 738.6 527.9 743.6 540.1L850.4 774.6Z" fill="black"/>
<path d="M761.5 765.8L717.1 782.9L610.8 594.7H425.1V519.9H638.5C651.7 519.9 663.6 527.9 668.6 540.1L761.5 765.8Z" fill="#3F4249"/>
<path opacity="0.2" d="M639.5 578.8C632 564.2 623.7 559.9 607.3 559.9H479.8L484.1 519.9H458V594.7H468.6H610.7L717.1 782.9L737 775.2L639.5 578.8Z" fill="black"/>
<path d="M761.5 765.8L765.1 771.4C769.8 778.8 777 784.4 785.3 787.1L830.8 803.2C834.9 804.5 834.4 810.5 830.1 810.5H824.4C823.7 811.5 822.5 812.1 821.2 812.1C820 812.1 818.6 811.5 817.7 810.7C817.6 810.6 817.5 810.6 817.4 810.5H816.6C816.5 810.6 816.3 810.6 816.2 810.8C815.5 811.6 814.4 812.2 813.2 812.2C812.1 812.2 810.8 811.7 809.9 811C809.5 810.6 808.8 810.7 808.5 811.1C807.9 811.8 807.1 812.2 806.1 812.2C805.2 812.2 804.1 811.8 803.3 811.2C802.9 810.9 802.3 811 802 811.3C801.4 811.8 800.7 812.2 799.8 812.2C798.6 812.2 797.6 811.5 797.1 810.6H796.7L740.4 809.7C735 809.6 731 807.9 728.7 803.7L717.1 782.9L761.5 765.8Z" fill="#FC9D9D"/>
<path opacity="0.15" d="M731.6 777.3L761.5 765.8L737.2 787.4L742 796C744.3 800.2 748.3 801.9 753.7 802L810 802.9H810.4C810.9 803.9 812 804.5 813.1 804.5C813.9 804.5 814.7 804.2 815.3 803.6C815.7 803.3 816.2 803.2 816.6 803.5C817.4 804.1 818.5 804.5 819.4 804.5C820.4 804.5 821.2 804.1 821.8 803.4C822.2 803 822.8 803 823.2 803.3C824.1 804.1 825.4 804.5 826.5 804.5C827.7 804.5 828.8 804 829.5 803.1C829.6 803 829.7 802.9 829.9 802.8H830L830.9 803.1C831.2 803.2 831.4 803.3 831.6 803.4C831.7 803.5 831.9 803.6 832 803.7C834.8 805.7 834 810.5 830.2 810.5H824.5C823.8 811.5 822.6 812.1 821.3 812.1C820.1 812.1 818.7 811.5 817.8 810.7C817.7 810.6 817.6 810.6 817.5 810.5H816.7C816.6 810.6 816.4 810.6 816.3 810.8C815.6 811.6 814.5 812.2 813.3 812.2C812.2 812.2 810.9 811.7 810 811C809.6 810.6 808.9 810.7 808.6 811.1C808 811.8 807.2 812.2 806.2 812.2C805.3 812.2 804.2 811.8 803.4 811.2C803 810.9 802.4 811 802.1 811.3C801.5 811.8 800.8 812.2 799.9 812.2C798.7 812.2 797.7 811.5 797.2 810.6H796.8L740.5 809.7C735.1 809.6 731.1 807.9 728.8 803.7L717.2 782.9L731.6 777.3Z" fill="black"/>
<path opacity="0.15" d="M788.1 788.1C788.1 788.1 779.3 803.6 762.8 809.2H779.5L788.1 788.1Z" fill="black"/>
<path d="M249.1 814.8H406.1C412.4 814.8 417.5 809.7 417.5 803.4V496.3C417.5 490 412.4 484.9 406.1 484.9H260.5C254.2 484.9 249.1 490 249.1 496.3V814.8Z" fill="#868A91"/>
<path opacity="0.4" d="M165.6 320.1H153.3V368.3V808.4H156.8V325H165.6V320.1Z" fill="black"/>
<path d="M134.9 320.1H183.9C188.4 320.1 192.1 316.4 192.1 311.9V286.4H126.8V311.9C126.8 316.4 130.4 320.1 134.9 320.1Z" fill="#61656D"/>
<path d="M153.253 808.34H165.553V320.038H153.253V808.34Z" fill="#61656D"/>
<path d="M165.6 320.1H153.3V797H156.7V324.7H165.6V320.1Z" fill="#21252B"/>
<path d="M135 311.9V305.4H126.8V311.9C126.8 316.4 130.5 320.1 135 320.1H143.2C138.6 320.1 135 316.4 135 311.9Z" fill="#21252B"/>
<path d="M93.5999 814.3C91.2999 814.3 90.4999 811.1 92.5999 810.1C112 800.7 134.9 795.2 159.4 795.2C183.9 795.2 206.8 800.6 226.2 810.1C228.3 811.1 227.6 814.3 225.2 814.3H93.5999Z" fill="#61656D"/>
<path d="M167 795.4C164.5 795.3 162 795.2 159.5 795.2C135 795.2 112.1 800.6 92.6999 810.1C90.5999 811.1 91.2999 814.3 93.6999 814.3H116C121.9 806.3 143.7 796.9 167 795.4Z" fill="#21252B"/>
<path d="M1130.5 815.3H48.2998C47.9998 815.3 47.7998 815.1 47.7998 814.8C47.7998 814.5 47.9998 814.3 48.2998 814.3H1130.5C1130.8 814.3 1131 814.5 1131 814.8C1131 815.1 1130.8 815.3 1130.5 815.3Z" fill="#B2B6BB"/>
<path d="M211.3 476.5C211 476.5 210.8 476.3 210.8 476V306C210.8 305.7 211 305.5 211.3 305.5C211.6 305.5 211.8 305.7 211.8 306V476C211.8 476.3 211.5 476.5 211.3 476.5Z" fill="#21252B"/>
<path d="M403.3 486.2H290.9C290.6 486.2 290.4 485.9 290.4 485.5C290.4 485.1 290.6 484.8 290.9 484.8H403.4C403.7 484.8 403.9 485.1 403.9 485.5C403.9 485.9 403.6 486.2 403.3 486.2Z" fill="#B2B6BB"/>
<path opacity="0.2" d="M886.2 163.1L995 440.9H1029.3L918.6 163.1H886.2Z" fill="white"/>
<path opacity="0.2" d="M934 163.1L1042.9 440.9H1054.3L943.6 163.1H934Z" fill="white"/>
<path d="M1136.6 440.9H978.4V163.1H1059.9L1056.4 150.5H797.7V453.5H1140L1136.6 440.9ZM810.4 163.1H965.8V440.9H810.4V163.1Z" fill="white"/>
<path d="M364.6 485H338.8C334.8 485 331.6 481.8 331.6 477.8V435.4H371.9V477.8C371.8 481.8 368.6 485 364.6 485Z" fill="#21252B"/>
<path d="M378.1 470.5H371.8V467.4H378.1C379.7 467.4 381 466.1 381 464.5V447.2C381 445.6 379.7 444.3 378.1 444.3H371.8V441.2H378.1C381.4 441.2 384 443.9 384 447.1V464.4C384.1 467.8 381.4 470.5 378.1 470.5Z" fill="#21252B"/>
<path opacity="0.6" d="M374.6 444.3V441.2H371.8V435.3H363V477C363 480.6 360.1 483.5 356.5 483.5H334.2C335.4 484.5 337 485.1 338.7 485.1H364.5C368.5 485.1 371.7 481.9 371.7 477.9V470.6H374.5V467.5H371.7V444.4H374.6V444.3Z" fill="black"/>
<path d="M345.3 432.3C345 432.3 344.8 432.1 344.8 431.8C344.8 428 341.7 424.8 337.8 424.8H334.4C331.4 424.8 329 422.4 329 419.4C329 416.4 331.4 414 334.4 414H353.6C356 414 358 412 358 409.6C358 407.2 356 405.2 353.6 405.2H349C345.9 405.2 343.5 402.7 343.5 399.7C343.5 399.4 343.7 399.2 344 399.2C344.3 399.2 344.5 399.4 344.5 399.7C344.5 402.2 346.5 404.2 349 404.2H353.6C356.6 404.2 359 406.6 359 409.6C359 412.6 356.6 415 353.6 415H334.4C332 415 330 417 330 419.4C330 421.8 332 423.8 334.4 423.8H337.8C342.2 423.8 345.8 427.4 345.8 431.8C345.8 432.1 345.6 432.3 345.3 432.3Z" fill="white"/>
<path d="M356.4 435.4C356.1 435.4 355.9 435.2 355.9 434.9V433.7C355.9 432.8 355.2 432.1 354.3 432.1C352.8 432.1 351.7 430.9 351.7 429.5V427.4C351.7 425.9 352.9 424.8 354.3 424.8H357.5C361.8 424.8 365.4 421.3 365.4 416.9V413C365.4 412.7 365.6 412.5 365.9 412.5C366.2 412.5 366.4 412.7 366.4 413V416.8C366.4 421.7 362.4 425.7 357.5 425.7H354.3C353.4 425.7 352.7 426.4 352.7 427.3V429.4C352.7 430.3 353.4 431 354.3 431C355.8 431 356.9 432.2 356.9 433.6V434.8C356.9 435.1 356.7 435.4 356.4 435.4Z" fill="white"/>
<path opacity="0.6" d="M517.9 452.2C519.004 452.2 519.9 451.305 519.9 450.2C519.9 449.096 519.004 448.2 517.9 448.2C516.795 448.2 515.9 449.096 515.9 450.2C515.9 451.305 516.795 452.2 517.9 452.2Z" fill="black"/>
<path opacity="0.6" d="M601.3 416.3C602.404 416.3 603.3 415.405 603.3 414.3C603.3 413.196 602.404 412.3 601.3 412.3C600.195 412.3 599.3 413.196 599.3 414.3C599.3 415.405 600.195 416.3 601.3 416.3Z" fill="black"/>
<path opacity="0.6" d="M562.7 378C563.805 378 564.7 377.105 564.7 376C564.7 374.895 563.805 374 562.7 374C561.596 374 560.7 374.895 560.7 376C560.7 377.105 561.596 378 562.7 378Z" fill="black"/>
<path opacity="0.6" d="M520.5 405.4C521.605 405.4 522.5 404.505 522.5 403.4C522.5 402.296 521.605 401.4 520.5 401.4C519.395 401.4 518.5 402.296 518.5 403.4C518.5 404.505 519.395 405.4 520.5 405.4Z" fill="black"/>
<path opacity="0.6" d="M571 478C572.105 478 573 477.105 573 476C573 474.895 572.105 474 571 474C569.895 474 569 474.895 569 476C569 477.105 569.895 478 571 478Z" fill="black"/>
<path opacity="0.6" d="M563.6 433.5C564.705 433.5 565.6 432.605 565.6 431.5C565.6 430.395 564.705 429.5 563.6 429.5C562.496 429.5 561.6 430.395 561.6 431.5C561.6 432.605 562.496 433.5 563.6 433.5Z" fill="black"/>
<path opacity="0.6" d="M485.2 366.5C486.305 366.5 487.2 365.605 487.2 364.5C487.2 363.395 486.305 362.5 485.2 362.5C484.096 362.5 483.2 363.395 483.2 364.5C483.2 365.605 484.096 366.5 485.2 366.5Z" fill="black"/>
<path opacity="0.6" d="M437.6 360.6C438.705 360.6 439.6 359.705 439.6 358.6C439.6 357.496 438.705 356.6 437.6 356.6C436.496 356.6 435.6 357.496 435.6 358.6C435.6 359.705 436.496 360.6 437.6 360.6Z" fill="black"/>
<path opacity="0.6" d="M474.2 417.4C475.305 417.4 476.2 416.505 476.2 415.4C476.2 414.296 475.305 413.4 474.2 413.4C473.096 413.4 472.2 414.296 472.2 415.4C472.2 416.505 473.096 417.4 474.2 417.4Z" fill="black"/>
<path opacity="0.6" d="M476.2 470.7C477.305 470.7 478.2 469.805 478.2 468.7C478.2 467.596 477.305 466.7 476.2 466.7C475.096 466.7 474.2 467.596 474.2 468.7C474.2 469.805 475.096 470.7 476.2 470.7Z" fill="black"/>
<path opacity="0.6" d="M410.3 396.3C411.404 396.3 412.3 395.405 412.3 394.3C412.3 393.196 411.404 392.3 410.3 392.3C409.195 392.3 408.3 393.196 408.3 394.3C408.3 395.405 409.195 396.3 410.3 396.3Z" fill="black"/>
<path d="M944.7 814.8H841.5C840 814.8 838.7 813.6 838.7 812C838.7 810.5 839.9 809.2 841.5 809.2H947.4V812C947.4 813.5 946.2 814.8 944.7 814.8Z" fill="#22A5E6"/>
<path d="M947.4 809.2C947.2 803.3 943.4 798.2 937.8 796.2L903.6 784.3C902.1 783.8 900.6 784.6 900.2 786.1C898.7 791.1 895 801.8 887.7 809.2H841.5C840 809.2 838.7 810.4 838.7 812C838.7 813.6 839.9 814.8 841.5 814.8H944.7C946.2 814.8 947.4 813.6 947.4 812.1V809.2Z" fill="#22A5E6"/>
<path d="M947.4 809.2C947.2 803.3 943.4 798.2 937.8 796.2L903.6 784.3C902.1 783.8 900.6 784.6 900.2 786.1C898.7 791.1 895 801.8 887.7 809.2H841.5C840 809.2 838.7 810.4 838.7 812C838.7 813.6 839.9 814.8 841.5 814.8H944.7C946.2 814.8 947.4 813.6 947.4 812.1V809.2Z" fill="#21252B"/>
<path opacity="0.4" d="M947.4 809.2C947.2 804.5 944.8 800.3 941 797.8C945.9 801.3 945 804.8 938 804.5C901.9 802.8 897.2 802.8 893 802.4C893.1 802.3 893.1 802.2 893.1 802.1C891.5 804.6 889.7 807.1 887.6 809.2H841.4C839.9 809.2 838.6 810.4 838.6 812C838.6 813.6 839.8 814.8 841.4 814.8H944.6C946.1 814.8 947.3 813.6 947.3 812.1V809.2H947.4Z" fill="black"/>
<path opacity="0.4" d="M947.3 808.3H888.5L887.6 809.2H947.3V808.3Z" fill="black"/>
<path d="M833.2 814.8H730C728.5 814.8 727.2 813.6 727.2 812C727.2 810.5 728.4 809.2 730 809.2H835.9V812C835.9 813.5 834.7 814.8 833.2 814.8Z" fill="#22A5E6"/>
<path d="M835.9 809.2C835.7 803.3 831.9 798.2 826.3 796.2L792.1 784.3C790.6 783.8 789.1 784.6 788.7 786.1C787.2 791.1 783.5 801.8 776.2 809.2H730C728.5 809.2 727.2 810.4 727.2 812C727.2 813.6 728.4 814.8 730 814.8H833.2C834.7 814.8 835.9 813.6 835.9 812.1V809.2Z" fill="#22A5E6"/>
<path d="M835.9 809.2C835.7 803.3 831.9 798.2 826.3 796.2L792.1 784.3C790.6 783.8 789.1 784.6 788.7 786.1C787.2 791.1 783.5 801.8 776.2 809.2H730C728.5 809.2 727.2 810.4 727.2 812C727.2 813.6 728.4 814.8 730 814.8H833.2C834.7 814.8 835.9 813.6 835.9 812.1V809.2Z" fill="#21252B"/>
<path opacity="0.4" d="M835.9 809.2C835.7 804.5 833.3 800.3 829.5 797.8C834.4 801.3 833.5 804.8 826.5 804.5C790.4 802.8 785.7 802.8 781.5 802.4C781.6 802.3 781.6 802.2 781.6 802.1C780 804.6 778.2 807.1 776.1 809.2H730C728.5 809.2 727.2 810.4 727.2 812C727.2 813.6 728.4 814.8 730 814.8H833.2C834.7 814.8 835.9 813.6 835.9 812.1V809.2Z" fill="black"/>
<path opacity="0.4" d="M835.9 808.3H777L776.2 809.2H835.9V808.3Z" fill="black"/>
<path d="M473.5 111.7C473.5 88.4 455.9 69.2 433.2 66.7V66.4H428.2C403.2 66.4 382.9 86.7 382.9 111.7C382.9 136.7 403.2 157 428.2 157H433.2V156.7C455.9 154.2 473.5 135 473.5 111.7Z" fill="#B2B6BB"/>
<path d="M433.2 157C458.218 157 478.5 136.719 478.5 111.7C478.5 86.682 458.218 66.4 433.2 66.4C408.181 66.4 387.9 86.682 387.9 111.7C387.9 136.719 408.181 157 433.2 157Z" fill="#868A91"/>
<path d="M433.2 152C455.457 152 473.5 133.957 473.5 111.7C473.5 89.443 455.457 71.4 433.2 71.4C410.943 71.4 392.9 89.443 392.9 111.7C392.9 133.957 410.943 152 433.2 152Z" fill="white"/>
<path d="M433.2 152C455.457 152 473.5 133.957 473.5 111.7C473.5 89.443 455.457 71.4 433.2 71.4C410.943 71.4 392.9 89.443 392.9 111.7C392.9 133.957 410.943 152 433.2 152Z" fill="#868A91"/>
<path opacity="0.9" d="M433.2 152C455.457 152 473.5 133.957 473.5 111.7C473.5 89.443 455.457 71.4 433.2 71.4C410.943 71.4 392.9 89.443 392.9 111.7C392.9 133.957 410.943 152 433.2 152Z" fill="white"/>
<path d="M433.2 71.4C432.5 71.4 431.8 71.4 431 71.5C452.2 72.6 469.1 90.2 469.1 111.7C469.1 133.2 452.2 150.8 431 151.9C431.7 151.9 432.4 152 433.2 152C455.5 152 473.5 134 473.5 111.7C473.5 89.4 455.5 71.4 433.2 71.4Z" fill="#B2B6BB"/>
<path d="M433.6 114.8L420.2 88.2C419.7 87.2 420.1 85.8999 421.1 85.3999C422.1 84.8999 423.4 85.2999 423.9 86.2999L435.4 109.2L450.7 101.7C451.7 101.2 453 101.6 453.5 102.7C454 103.7 453.6 105 452.5 105.5L433.6 114.8Z" fill="#22A5E6"/>
<path d="M1063.6 675.9L1017.7 725.7L1018 634.1H1016.8L1016.7 678.5L977.9 639L977.1 639.8L1016.7 680.2L1016.4 763.2H1017.6L1017.7 727.4L1064.4 676.7L1063.6 675.9Z" fill="#21252B"/>
<path d="M982.4 725.6L981.6 726.4L1001.8 745.4L1005 763.3L1006.1 763.1L993.4 691.5L992.2 691.7L1001.5 743.5L982.4 725.6Z" fill="#21252B"/>
<path d="M997.3 814.8H1025.8C1031.1 814.8 1035.5 810.5 1035.5 805.1V767.4H987.6V805.1C987.6 810.4 991.9 814.8 997.3 814.8Z" fill="#61656D"/>
<path d="M1017.4 634.2C1033.86 634.2 1047.2 620.858 1047.2 604.4C1047.2 587.942 1033.86 574.6 1017.4 574.6C1000.94 574.6 987.6 587.942 987.6 604.4C987.6 620.858 1000.94 634.2 1017.4 634.2Z" fill="#22A5E6"/>
<path d="M990.7 694.5C1002.46 694.5 1012 684.964 1012 673.2C1012 661.437 1002.46 651.9 990.7 651.9C978.94 651.9 969.4 661.437 969.4 673.2C969.4 684.964 978.94 694.5 990.7 694.5Z" fill="#22A5E6"/>
<g opacity="0.3">
<path opacity="0.3" d="M990.7 694.5C1002.46 694.5 1012 684.964 1012 673.2C1012 661.437 1002.46 651.9 990.7 651.9C978.94 651.9 969.4 661.437 969.4 673.2C969.4 684.964 978.94 694.5 990.7 694.5Z" fill="white"/>
</g>
<g opacity="0.3">
<path opacity="0.3" d="M1017.4 634.2C1033.86 634.2 1047.2 620.858 1047.2 604.4C1047.2 587.942 1033.86 574.6 1017.4 574.6C1000.94 574.6 987.6 587.942 987.6 604.4C987.6 620.858 1000.94 634.2 1017.4 634.2Z" fill="white"/>
</g>
<path d="M971.7 646.3C978.71 646.3 984.4 640.614 984.4 633.6C984.4 626.586 978.71 620.9 971.7 620.9C964.69 620.9 959 626.586 959 633.6C959 640.614 964.69 646.3 971.7 646.3Z" fill="#22A5E6"/>
<path d="M971.4 731.2C979.74 731.2 986.5 724.439 986.5 716.1C986.5 707.76 979.74 701 971.4 701C963.06 701 956.3 707.76 956.3 716.1C956.3 724.439 963.06 731.2 971.4 731.2Z" fill="#22A5E6"/>
<path d="M1052.2 708.6C1062.86 708.6 1071.5 699.959 1071.5 689.3C1071.5 678.641 1062.86 670 1052.2 670C1041.54 670 1032.9 678.641 1032.9 689.3C1032.9 699.959 1041.54 708.6 1052.2 708.6Z" fill="#22A5E6"/>
<path d="M1036.5 762.3H986.6C985.2 762.3 984.1 763.4 984.1 764.8C984.1 766.2 985.2 767.3 986.6 767.3H1036.5C1037.9 767.3 1039 766.2 1039 764.8C1039 763.4 1037.9 762.3 1036.5 762.3Z" fill="#61656D"/>
<path d="M987.6 604.4C987.6 587.9 1001 574.6 1017.4 574.6V634.3C1000.9 634.2 987.6 620.9 987.6 604.4Z" fill="#22A5E6"/>
<path d="M993.8 694.3C982.3 696 971.6 688.2 969.6 676.7C967.7 665.4 975.1 654.6 986.3 652.3L993.8 694.3Z" fill="#22A5E6"/>
<path opacity="0.3" d="M962.7 642.6C957.7 637.7 957.6 629.6 962.6 624.6C962.6 624.6 962.7 624.5 962.8 624.5L980.6 642.7C975.7 647.5 967.7 647.5 962.7 642.6Z" fill="black"/>
<path opacity="0.3" d="M982.1 726.7C976.2 732.7 966.6 732.7 960.7 726.8C954.8 721 954.7 711.5 960.4 705.6L982.4 726.3C982.4 726.5 982.3 726.6 982.1 726.7Z" fill="black"/>
<path d="M1035.4 767.4H991.8C990.4 767.4 989.3 766.3 989.3 764.9C989.3 763.5 990.4 762.4 991.8 762.4H986.5C985.1 762.4 984 763.5 984 764.9C984 766.3 985.1 767.4 986.5 767.4H987.5V768.2V805.1C987.5 810.4 991.8 814.8 997.2 814.8H1012.4C1012.6 814.8 1012.7 814.8 1012.7 814.8C1005.9 814.8 1000.1 810 998.8 803.4L991.9 768.2H1035.3V767.4H1035.4Z" fill="#3F4249"/>
<path opacity="0.3" d="M1065.3 675.1C1065.2 675 1065.1 675 1065.1 674.9L1039.1 703.4L1039.2 703.5C1047 710.7 1059.3 710.2 1066.5 702.4C1073.6 694.5 1073.1 682.3 1065.3 675.1Z" fill="black"/>
<path d="M1062.1 171.2H810.4V166.6H1060.9L1062.1 171.2Z" fill="white"/>
<path d="M1064.4 179.3H810.4V174.7H1063.1L1064.4 179.3Z" fill="white"/>
<path d="M1066.6 187.4H810.4V182.8H1065.3L1066.6 187.4Z" fill="white"/>
<path d="M1068.9 195.5H810.4V190.9H1067.6L1068.9 195.5Z" fill="white"/>
<path d="M1071.1 203.6H810.4V199H1069.8L1071.1 203.6Z" fill="white"/>
<path d="M1073.3 211.7H810.4V207H1072L1073.3 211.7Z" fill="white"/>
<path d="M816.3 292.2H816.1V163.2H815V292.2H814.8C813.9 292.2 813.1 292.9 813.1 293.9V311.9C813.1 312.8 813.8 313.6 814.8 313.6H816.3C817.2 313.6 818 312.9 818 311.9V293.9C818 292.9 817.3 292.2 816.3 292.2Z" fill="white"/>
<path opacity="0.2" d="M575.3 395.2L584.8 488.9L593.1 497.1L600.7 492.1L584.1 402.1C582.4 394.7 575.3 394.1 575.3 395.2Z" fill="black"/>
<path opacity="0.2" d="M812.9 166.6H810.4V171.2H812.9V166.6Z" fill="black"/>
<path opacity="0.2" d="M812.9 174.7H810.4V179.3H812.9V174.7Z" fill="black"/>
<path opacity="0.2" d="M812.9 182.8H810.4V187.4H812.9V182.8Z" fill="black"/>
<path opacity="0.2" d="M812.9 190.9H810.4V195.5H812.9V190.9Z" fill="black"/>
<path opacity="0.2" d="M812.9 198.9H810.4V203.5H812.9V198.9Z" fill="black"/>
<path opacity="0.2" d="M812.9 207H810.4V211.6H812.9V207Z" fill="black"/>
<path opacity="0.2" d="M978.4 171.2H965.8V173.2H978.4V171.2Z" fill="black"/>
<path opacity="0.2" d="M978.4 179.3H965.8V181.3H978.4V179.3Z" fill="black"/>
<path opacity="0.2" d="M978.4 187.4H965.8V189.4H978.4V187.4Z" fill="black"/>
<path opacity="0.2" d="M978.4 195.5H965.8V197.5H978.4V195.5Z" fill="black"/>
<path opacity="0.2" d="M978.4 203.6H965.8V205.6H978.4V203.6Z" fill="black"/>
<path opacity="0.2" d="M978.4 211.7H965.8V213.7H978.4V211.7Z" fill="black"/>
<path d="M117.5 168.2H202.3L249.5 302.9H69.2998L117.5 168.2Z" fill="#22A5E6"/>
<path d="M117.5 168.2H144.3L125.8 302.9H69.2998L117.5 168.2Z" fill="#22A5E6"/>
<path d="M117.439 168.231H202.339V162.131H117.439V168.231Z" fill="#22A5E6"/>
<path d="M69.353 308.932H249.553V302.832H69.353V308.932Z" fill="#22A5E6"/>
<path opacity="0.4" d="M117.5 168.2H202.3L249.5 302.9H69.2998L117.5 168.2Z" fill="white"/>
<path opacity="0.4" d="M138.5 168.2H202.3L249.5 302.9H118.2L138.5 168.2Z" fill="white"/>
<path opacity="0.6" d="M472.2 340.9C472.2 340.9 471.2 345 474.4 347C478 349.1 491.9 358.4 511.5 352.5C511.5 352.5 517.7 350.8 523.6 346.5C524.9 345.5 525.9 344.1 526.1 342.4C526.1 342.2 526.1 342.1 526.1 341.9V340.5C526.1 340.5 526.1 340.5 531.6 341.8C531.6 343.5 531.1 346.7 528.3 349.5C526.7 351.1 503 369.4 472.8 352.5C472.8 352.5 466.2 349.9 466.9 342.2C472.2 340.9 472.2 340.9 472.2 340.9Z" fill="black"/>
<path opacity="0.5" d="M467.7 132.4C471.4 126.3 473.5 119.2 473.5 111.6C473.5 89.3 455.5 71.3 433.2 71.3C432.1 71.3 431 71.4 429.9 71.4L467.7 132.4Z" fill="white"/>
<path opacity="0.5" d="M423.8 72.5C421.8 73 419.9 73.6 418.1 74.3L459.8 141.9C461.4 140.5 462.9 138.901 464.3 137.201L423.8 72.5Z" fill="white"/>
<path d="M548 486.2L562.2 488.1L592.5 485.4C595.7 485.7 597.1 486.3 599.5 488.4L618.2 505.1C619.4 506.2 619.5 508 618.5 509.2C617.5 510.4 615.7 510.7 614.4 509.7L596.7 496.7L608.2 510.3C609.5 511.8 608.9 514.2 607 514.9C605.9 515.3 604.8 515 604 514.3L588.6 499.2L600.3 510.7C601.7 512.1 601.2 514.4 599.4 515.1C598.5 515.5 597.5 515.3 596.8 514.8L580.4 502.8L591.5 511C592.8 511.9 592.8 513.9 591.5 514.8C590.8 515.3 589.9 515.4 589.2 515.1L574.3 508.9C572.9 508.3 571.2 508.3 569.8 509L564.1 511.8C559.5 514.1 554.3 515.3 549.2 515.3H539.9C526.6 515.3 548 486.2 548 486.2Z" fill="#FC9D9D"/>
<path opacity="0.15" d="M459.8 474.9L454.8 474.5C453.3 474.4 452.5 472.8 453.1 471.5L458.4 460.8L459.8 474.9Z" fill="black"/>
<path opacity="0.15" d="M591.5 511.5C591.4 511.5 591.3 511.5 591.2 511.4L581 503.9C580.8 503.7 580.7 503.4 580.9 503.2C581.1 503 581.4 502.9 581.6 503.1L591.8 510.6C592 510.8 592.1 511.1 591.9 511.3C591.8 511.4 591.6 511.5 591.5 511.5Z" fill="black"/>
<path opacity="0.15" d="M600.2 511.2C600.1 511.2 599.9 511.2 599.9 511.1L588.9 500.3C588.7 500.1 588.7 499.8 588.9 499.6C589.1 499.4 589.4 499.4 589.6 499.6L600.6 510.4C600.8 510.6 600.8 510.9 600.6 511.1C600.5 511.2 600.3 511.2 600.2 511.2Z" fill="black"/>
<path opacity="0.15" d="M577.6 507.1C581 508.8 586.7 511.7 588.7 512.8C591.5 514.4 592.3 512.3 592.3 512.3C592.5 513.2 592.2 514.2 591.4 514.8C590.7 515.3 589.8 515.4 589.1 515.1L574.2 508.9C572.8 508.3 571.1 508.3 569.7 509L572.6 507.3C574.2 506.4 576 506.4 577.6 507.1Z" fill="black"/>
<path d="M545.7 487.4L459.8 474.8L454.2 420.4L400.6 423.1L411.5 492.6C413.6 505.7 424.8 515.3 438 515.3H535.7L545.7 487.4Z" fill="#22A5E6"/>
<path d="M557.4 487.4L459.8 474.9L454.2 420.5L400.6 423.2L411.5 492.7C413.6 505.8 424.8 515.4 438 515.4H547.7L557.4 487.4Z" fill="#22A5E6"/>
<path d="M587.5 499.9L583.6 497.1L587.5 499.9Z" fill="#9A73EF"/>
<path opacity="0.6" d="M432.7 435.5C433.805 435.5 434.7 434.605 434.7 433.5C434.7 432.395 433.805 431.5 432.7 431.5C431.596 431.5 430.7 432.395 430.7 433.5C430.7 434.605 431.596 435.5 432.7 435.5Z" fill="black"/>
<path opacity="0.6" d="M547.7 486.2L557.4 487.4L547.8 515.3H535.8L547.7 486.2Z" fill="black"/>
<g opacity="0.2">
<path opacity="0.2" d="M548.7 485.5C548.6 485.9 548.3 486.1 548 486.1H547.9L459.7 473.3L459.5 471.7L548.1 484.6C548.5 484.7 548.8 485.1 548.7 485.5Z" fill="black"/>
</g>
<path d="M451.6 449.6C450.8 449.6 450.2 449 450.1 448.2L449.6 443.3C449.5 442.5 450.1 441.7 451 441.7C451.8 441.6 452.6 442.2 452.6 443.1L453.1 448C453.2 448.8 452.6 449.6 451.7 449.6C451.7 449.6 451.7 449.6 451.6 449.6Z" fill="white"/>
<path d="M414.3 465.9C414 465.9 413.6 465.8 413.3 465.5C412.7 465 412.6 464 413.1 463.4L416 459.9C416.5 459.3 417.5 459.2 418.1 459.7C418.7 460.2 418.8 461.2 418.3 461.8L415.4 465.3C415.1 465.7 414.7 465.9 414.3 465.9Z" fill="white"/>
<path d="M458.8 499C458.7 499 458.5 499 458.4 498.9L453.5 497.4C452.7 497.2 452.3 496.3 452.5 495.5C452.7 494.7 453.6 494.3 454.4 494.5L459.3 496C460.1 496.2 460.5 497.1 460.3 497.9C460.1 498.6 459.5 499 458.8 499Z" fill="white"/>
<path d="M501.5 500.5C501.2 500.5 500.8 500.4 500.6 500.2C500 499.7 499.9 498.7 500.4 498.1L503.5 494.3C504 493.7 505 493.6 505.6 494.1C506.2 494.6 506.3 495.6 505.8 496.2L502.7 500C502.3 500.3 501.9 500.5 501.5 500.5Z" fill="white"/>
<path opacity="0.6" d="M481.6 489.4C482.705 489.4 483.6 488.505 483.6 487.4C483.6 486.296 482.705 485.4 481.6 485.4C480.496 485.4 479.6 486.296 479.6 487.4C479.6 488.505 480.496 489.4 481.6 489.4Z" fill="black"/>
<path opacity="0.6" d="M517.9 511.4C519.004 511.4 519.9 510.505 519.9 509.4C519.9 508.296 519.004 507.4 517.9 507.4C516.795 507.4 515.9 508.296 515.9 509.4C515.9 510.505 516.795 511.4 517.9 511.4Z" fill="black"/>
<path opacity="0.6" d="M439.1 472.7C440.205 472.7 441.1 471.805 441.1 470.7C441.1 469.596 440.205 468.7 439.1 468.7C437.996 468.7 437.1 469.596 437.1 470.7C437.1 471.805 437.996 472.7 439.1 472.7Z" fill="black"/>
<path opacity="0.15" d="M549.4 510.3L547.8 515.2H438.1C424.9 515.2 413.6 505.6 411.6 492.5L395.9 392C393.2 374 404.7 356.9 422.4 352.7L431.7 350.5C417.5 356.8 408.9 371.9 411.3 387.7L425.8 480.3C427.9 493.4 439.1 503 452.3 503L549.4 510.3Z" fill="black"/>
<path opacity="0.15" d="M559.1 510.4C556.8 510.4 555 508.3 555.2 506L557.4 487.4L547.7 515.3H549.1C554.3 515.3 559.4 514.1 564 511.8L570.8 508.6C569.2 508.8 565 510.4 559.1 510.4Z" fill="black"/>
<path d="M534.4 514.5H633C633.8 514.5 634.5 515.2 634.5 516V518.5C634.5 519.3 633.8 520 633 520H534.4C533.6 520 532.9 519.3 532.9 518.5V516C532.9 515.2 533.5 514.5 534.4 514.5Z" fill="#21252B"/>
<path opacity="0.6" d="M534.4 514.5H633C633.8 514.5 634.5 515.2 634.5 516V518.5C634.5 519.3 633.8 520 633 520H534.4C533.6 520 532.9 519.3 532.9 518.5V516C532.9 515.2 533.5 514.5 534.4 514.5Z" fill="black"/>
<path d="M600.9 514.5H772.8C773.6 514.5 774.3 515.2 774.3 516V518.5C774.3 519.3 773.6 520 772.8 520H600.9C600.1 520 599.4 519.3 599.4 518.5V516C599.5 515.2 600.1 514.5 600.9 514.5Z" fill="#21252B"/>
<g opacity="0.6">
<path opacity="0.6" d="M770.6 515.5H595.6C595.3 515.5 595.1 515.3 595.1 515C595.1 514.7 595.3 514.5 595.6 514.5H770.6C770.9 514.5 771.1 514.7 771.1 515C771.1 515.3 770.8 515.5 770.6 515.5Z" fill="black"/>
</g>
<path d="M600.5 514.5H626.4C628.4 514.5 630.1 513.1 630.5 511.1L652.2 397C652.7 394.4 650.7 392.1 648.1 392.1H622.2C620.2 392.1 618.5 393.5 618.1 395.5L596.4 509.6C596 512.2 597.9 514.5 600.5 514.5Z" fill="#21252B"/>
<path opacity="0.6" d="M600.5 514.5H626.4C628.4 514.5 630.1 513.1 630.5 511.1L652.2 397C652.7 394.4 650.7 392.1 648.1 392.1H622.2C620.2 392.1 618.5 393.5 618.1 395.5L596.4 509.6C596 512.2 597.9 514.5 600.5 514.5Z" fill="black"/>
<path d="M604.2 514.5H770.5C772.5 514.5 774.2 513.1 774.6 511.1L796.3 397C796.8 394.4 794.8 392.1 792.2 392.1H626C624 392.1 622.3 393.5 621.9 395.5L600.2 509.6C599.7 512.2 601.6 514.5 604.2 514.5Z" fill="#21252B"/>
<path opacity="0.6" d="M699.2 450.1C698.2 452.4 699.3 454.4 701.6 454.4C701.7 454.4 701.9 454.4 702 454.4C699.3 457.4 695.2 459.5 691.6 459.4C686.7 459.3 684.4 455.3 686.6 450.4C688.7 445.5 694.5 441.7 699.4 441.8C702.5 441.9 704.6 443.5 705.1 446C702.8 446.1 700.2 447.8 699.2 450.1Z" fill="black"/>
<path d="M530.6 281.4C530.6 281.4 484.8 247.8 480.3 284.4L479 294L472.2 340.901V341L472.1 342C471.9 343.4 472.3 344.701 473.1 345.701V345.8L473.2 345.901C473.5 346.301 473.9 346.7 474.4 347C478.1 349.3 480.5 350.5 483.5 351.6C497.1 356.8 512.8 354.8 524.8 345.6C525.7 344.5 526.2 343.1 526.1 341.6L525.3 317.2C526.1 314.7 526.6 311.9 526.9 308.8C528.4 294.4 530.6 281.4 530.6 281.4Z" fill="#FC9D9D"/>
<path d="M535.8 284C544.802 284 552.1 276.703 552.1 267.7C552.1 258.698 544.802 251.4 535.8 251.4C526.798 251.4 519.5 258.698 519.5 267.7C519.5 276.703 526.798 284 535.8 284Z" fill="#21252B"/>
<path d="M537.9 255.9C537.9 255.9 549.7 328.6 512.6 330.7C480.5 332.6 480.7 282.9 480.7 282.9L484.6 250.9L537.9 255.9Z" fill="#FC9D9D"/>
<path d="M535.5 260.2H502.9C498.8 260.2 495.5 263.5 495.5 267.6C495.5 271.7 492.2 275 488.1 275C487 275 486.1 275.9 486.1 277V284.2C486.1 285.1 485.4 285.9 484.4 285.9C483.6 285.9 482.9 285.3 482.8 284.5L481.8 277.6L480.5 275.2L472.5 279.4C472.5 279.4 461.5 259.4 468.7 242.5C472.8 232.8 482.9 230.1 487.5 229.8C489 229.7 490.4 228.9 491.3 227.7C493.4 224.6 498.4 219.4 508.6 220.6C516.4 221.5 520.5 226 522.4 229.7C523.6 231.8 526.2 232.8 528.5 232C531.9 230.8 536.8 230.2 542.1 234C552.5 241.2 546.9 259.3 535.5 260.2Z" fill="#21252B"/>
<path opacity="0.15" d="M478.6 296.4C478.6 296.4 481.6 296.9 483.3 295.7L477.6 303.3L478.6 296.4Z" fill="black"/>
<path d="M481.8 277.5C481.8 277.5 479.9 270.6 472.7 273.2C464.5 276.1 464.7 294.4 478.2 296.4C485.3 297.5 484.1 293.3 483.3 287.7C481.8 277.5 481.8 277.5 481.8 277.5Z" fill="#FC9D9D"/>
<path opacity="0.3" d="M472 277.8C473.4 277 474.8 276.7 476 277.1C477.2 277.5 478.2 278.4 478.9 279.8C479.6 281.3 480 283 479.9 284.8V286.4C479.9 286.9 479.5 287.2 479 287.2C478.5 287.2 478.2 286.8 478.2 286.3V284.7C478.3 284.3 478.1 281.9 477.4 280.5C476.9 279.5 476.2 278.8 475.5 278.6C474.8 278.4 473.9 278.6 472.8 279.2C472.4 279.4 471.9 279.3 471.7 278.9C471.5 278.6 471.6 278.1 472 277.8Z" fill="black"/>
<path d="M535.6 261.701L531.8 261.801C531.4 261.801 531 261.501 531 261.101C531 260.701 531.3 260.301 531.7 260.301L535.5 260.201C536 260.201 536.5 260.101 536.9 260.001C537.8 259.801 539.6 259.201 541.4 258.201C541.8 258.001 542.2 258.101 542.4 258.501C542.6 258.901 542.5 259.301 542.1 259.501C540.2 260.601 538.2 261.201 537.2 261.401C536.8 261.601 536.2 261.701 535.6 261.701Z" fill="#FC9D9D"/>
<path opacity="0.15" d="M526.1 337.5L525.7 325.9C522.4 328.9 513.2 332.8 503.5 329.7C503.5 329.7 503.4 329.6 503.5 329.7C497.5 327.7 493.6 324 491.3 320.8C491.1 320.5 490.6 320.4 490.3 320.6C490 320.8 489.9 321.3 490.1 321.6C493 325.5 498.1 330.2 506.3 331.9C516 339.5 526.1 337.5 526.1 337.5Z" fill="black"/>
<g opacity="0.3">
<path opacity="0.3" d="M516.5 316.4H516.4C513.5 316.4 512 316.4 512 316.4C511.5 316.4 511 316 511 315.4C511 314.9 511.4 314.4 512 314.4C512 314.4 513.5 314.4 516.4 314.4C516.9 314.4 517.4 314.8 517.4 315.4C517.3 315.9 516.9 316.3 516.5 316.4Z" fill="black"/>
</g>
<g opacity="0.3">
<path opacity="0.3" d="M518.3 312.3C510.2 312.9 506.9 308.3 505.8 306C505.6 305.5 505.8 305 506.2 304.8C506.7 304.6 507.2 304.8 507.4 305.2C508.5 307.4 512.1 312.3 522 309.8C522.5 309.7 523 310 523.1 310.5C523.2 311 522.9 311.5 522.4 311.6C521 312 519.6 312.2 518.3 312.3Z" fill="black"/>
</g>
<path d="M509 292.3C510.602 292.3 511.9 291.002 511.9 289.4C511.9 287.799 510.602 286.5 509 286.5C507.398 286.5 506.1 287.799 506.1 289.4C506.1 291.002 507.398 292.3 509 292.3Z" fill="#21252B"/>
<path d="M510.4 290.701C510.732 290.701 511 290.432 511 290.1C511 289.769 510.732 289.5 510.4 289.5C510.069 289.5 509.8 289.769 509.8 290.1C509.8 290.432 510.069 290.701 510.4 290.701Z" fill="white"/>
<path d="M532.2 294.1C533.801 294.1 535.1 292.802 535.1 291.2C535.1 289.599 533.801 288.3 532.2 288.3C530.598 288.3 529.3 289.599 529.3 291.2C529.3 292.802 530.598 294.1 532.2 294.1Z" fill="#21252B"/>
<path d="M533.6 292.4C533.931 292.4 534.2 292.132 534.2 291.8C534.2 291.469 533.931 291.2 533.6 291.2C533.269 291.2 533 291.469 533 291.8C533 292.132 533.269 292.4 533.6 292.4Z" fill="white"/>
<g opacity="0.3">
<path opacity="0.3" d="M521 305.301H517C516.5 305.301 516.1 304.901 516.1 304.401C516.1 303.901 516.5 303.501 517 303.501H521C522 303.501 522.8 302.701 522.8 301.701C522.8 300.701 522 299.901 521 299.901C520.5 299.901 520.1 299.501 520.1 299.001C520.1 298.501 520.5 298.101 521 298.101C522.9 298.101 524.5 299.701 524.5 301.601C524.5 303.701 523 305.301 521 305.301Z" fill="black"/>
</g>
<path d="M541.2 284.1L528.4 283.2L526.7 283.1L515.5 282.3H515.4L501 281.3C498.7 281.1 496.6 282.9 496.5 285.2L496.3 288.5C495.9 294.8 500.6 300.4 507 300.8C513.3 301.2 518.9 296.5 519.3 290.1L519.5 286.8C519.6 285.8 519.3 284.9 518.8 284.2L523.3 284.5C522.7 285.2 522.3 286 522.2 287L522 290.3C521.6 296.6 526.3 302.2 532.7 302.6C539 303 544.6 298.3 545 291.9L545.2 288.6C545.3 286.4 543.5 284.3 541.2 284.1ZM517.7 286.8L517.5 290.1C517.1 295.5 512.4 299.6 507 299.2C501.6 298.8 497.5 294.1 497.9 288.7L498.1 285.4C498.2 284 499.4 282.9 500.8 283L515.2 284H515.3C516.7 284.1 517.8 285.4 517.7 286.8ZM543.2 291.8C542.8 297.2 538.1 301.3 532.7 300.9C527.3 300.5 523.2 295.8 523.6 290.4L523.8 287.1C523.9 285.7 525.1 284.6 526.5 284.7L528.2 284.8L541 285.7C542.4 285.8 543.5 287 543.4 288.4L543.2 291.8Z" fill="#21252B"/>
<path d="M383.1 814.8H458.1V496.3C458.1 490 453 484.9 446.7 484.9H394.5C388.2 484.9 383.1 490 383.1 496.3V814.8Z" fill="#B2B6BB"/>
</svg>
