<svg width="32" height="20" viewBox="0 0 32 20" version="1.1" xmlns="http://www.w3.org/2000/svg" xmlns:xlink="http://www.w3.org/1999/xlink">
<title>behance</title>
<desc>Created using Figma</desc>
<g id="Canvas" transform="translate(-879 -102)">
<g id="behance">
<g id="Group">
<g id="Behance">
<use xlink:href="#path0_fill" transform="translate(879 102)" fill="#626D73"/>
</g>
</g>
</g>
</g>
<defs>
<path id="path0_fill" d="M 28.8983 2.71704L 20.8803 2.71704L 20.8803 0.796538L 28.899 0.796538L 28.899 2.71704L 28.8983 2.71704L 28.8983 2.71704ZM 15.5425 10.5924C 16.0599 11.3651 16.3184 12.3033 16.3184 13.4048C 16.3184 14.5439 16.0269 15.5658 15.4339 16.4685C 15.0566 17.0658 14.5882 17.5703 14.0254 17.9765C 13.3915 18.4463 12.6411 18.7684 11.7784 18.9405C 10.9129 19.1129 9.97616 19.2 8.96711 19.2L 0 19.2L 0 1.18225e-07L 9.61585 1.18225e-07C 12.0396 0.0380228 13.758 0.715184 14.7727 2.04504C 15.3816 2.86067 15.6833 3.83935 15.6833 4.97695C 15.6833 6.15077 15.3779 7.09 14.7631 7.80361C 14.4211 8.20371 13.9159 8.56765 13.247 8.89615C 14.2601 9.25378 15.0288 9.81694 15.5425 10.5924ZM 4.59195 7.56959L 8.80522 7.56959C 9.67105 7.56959 10.371 7.4109 10.9101 7.09366C 11.4488 6.77693 11.7176 6.2139 11.7176 5.40553C 11.7176 4.51243 11.3617 3.91963 10.6481 3.63432C 10.0348 3.4361 9.25004 3.33401 8.29783 3.33401L 4.59195 3.33401L 4.59195 7.56959ZM 12.1233 13.1306C 12.1233 12.1332 11.7005 11.4437 10.8568 11.0738C 10.385 10.8635 9.71926 10.756 8.8657 10.7484L 4.59195 10.7484L 4.59195 15.8651L 8.79957 15.8651C 9.66399 15.8651 10.333 15.7559 10.8159 15.5283C 11.6866 15.1098 12.1233 14.3132 12.1233 13.1306ZM 31.8732 10.0071C 31.9701 10.6352 32.0139 11.5466 31.9961 12.7379L 21.6119 12.7379C 21.6692 14.12 22.164 15.0866 23.1024 15.6397C 23.6684 15.9866 24.3546 16.156 25.158 16.156C 26.0053 16.156 26.6958 15.9494 27.2274 15.5249C 27.517 15.2998 27.7725 14.9821 27.9934 14.5813L 31.7996 14.5813C 31.6999 15.3977 31.2416 16.2256 30.418 17.067C 29.142 18.4043 27.3525 19.0749 25.0542 19.0749C 23.1556 19.0749 21.4823 18.5094 20.0299 17.3824C 18.5824 16.2515 17.8554 14.4173 17.8554 11.873C 17.8554 9.48715 18.508 7.66099 19.8178 6.38988C 21.1324 5.11641 22.829 4.48258 24.9202 4.48258C 26.1597 4.48258 27.2771 4.69623 28.274 5.12574C 29.2677 5.55568 30.089 6.23234 30.7358 7.16232C 31.3211 7.98131 31.6976 8.92829 31.8732 10.0071ZM 28.1268 10.3653C 28.057 9.4096 27.7261 8.68624 27.1302 8.19187C 26.5393 7.69614 25.8011 7.44727 24.9202 7.44727C 23.9615 7.44727 23.2213 7.71329 22.6953 8.23613C 22.1657 8.75791 21.8362 9.46728 21.7012 10.3654L 28.1268 10.3654L 28.1268 10.3653Z"/>
</defs>
</svg>
