<svg width="41" height="25" viewBox="0 0 41 25" version="1.1" xmlns="http://www.w3.org/2000/svg" xmlns:xlink="http://www.w3.org/1999/xlink">
<title>behance-logo</title>
<desc>Created using Figma</desc>
<g id="Canvas" transform="translate(-863 -102)">
<g id="behance-logo">
<g id="Group">
<g id="Behance">
<use xlink:href="#path0_fill" transform="translate(863 102)" fill="#626D73"/>
</g>
</g>
</g>
</g>
<defs>
<path id="path0_fill" d="M 37.0259 3.53781L 26.7529 3.53781L 26.7529 1.03716L 37.0268 1.03716L 37.0268 3.53781L 37.0259 3.53781ZM 19.9138 13.7922C 20.5767 14.7983 20.9079 16.02 20.9079 17.4542C 20.9079 18.9374 20.5345 20.268 19.7746 21.4433C 19.2913 22.2211 18.6911 22.878 17.97 23.4069C 17.1579 24.0186 16.1964 24.438 15.091 24.6621C 13.9821 24.8866 12.782 25 11.4891 25L 0 25L 0 1.53939e-07L 12.3203 1.53939e-07C 15.4258 0.0495088 17.6274 0.93123 18.9275 2.66282C 19.7076 3.72483 20.0942 4.99916 20.0942 6.4804C 20.0942 8.00882 19.703 9.23178 18.9152 10.1609C 18.477 10.6819 17.8297 11.1558 16.9728 11.5835C 18.2708 12.0492 19.2556 12.7825 19.9138 13.7922ZM 5.88344 9.85624L 11.2817 9.85624C 12.391 9.85624 13.2878 9.64961 13.9785 9.23654C 14.6687 8.82412 15.0131 8.09102 15.0131 7.03845C 15.0131 5.87556 14.5571 5.10369 13.6429 4.73219C 12.8571 4.47409 11.8516 4.34116 10.6316 4.34116L 5.88344 4.34116L 5.88344 9.85624ZM 15.5329 17.0971C 15.5329 15.7985 14.9913 14.9007 13.9103 14.419C 13.3057 14.1452 12.4528 14.0053 11.3592 13.9953L 5.88344 13.9953L 5.88344 20.6576L 11.2744 20.6576C 12.382 20.6576 13.2392 20.5155 13.8578 20.2191C 14.9735 19.6742 15.5329 18.637 15.5329 17.0971ZM 40.8376 13.03C 40.9617 13.8479 41.0178 15.0347 40.995 16.5858L 27.6902 16.5858C 27.7636 18.3855 28.3976 19.644 29.6 20.3642C 30.3251 20.8159 31.2043 21.0364 32.2337 21.0364C 33.3193 21.0364 34.204 20.7675 34.8851 20.2147C 35.2562 19.9216 35.5835 19.508 35.8665 18.9861L 40.7432 18.9861C 40.6155 20.049 40.0283 21.1271 38.9731 22.2227C 37.3382 23.964 35.0453 24.8371 32.1007 24.8371C 29.6681 24.8371 27.5242 24.1007 25.6633 22.6333C 23.8087 21.1607 22.8772 18.7726 22.8772 15.4597C 22.8772 12.3531 23.7134 9.97525 25.3916 8.32016C 27.0759 6.662 29.2496 5.8367 31.929 5.8367C 33.5172 5.8367 34.9488 6.11488 36.226 6.67414C 37.4992 7.23396 38.5515 8.11503 39.3802 9.32593C 40.1302 10.3923 40.6125 11.6254 40.8376 13.03ZM 36.0375 13.4965C 35.948 12.2521 35.5241 11.3102 34.7606 10.6665C 34.0035 10.021 33.0576 9.69697 31.929 9.69697C 30.7007 9.69697 29.7522 10.0433 29.0783 10.7241C 28.3998 11.4035 27.9776 12.3272 27.8046 13.4966L 36.0375 13.4966L 36.0375 13.4965Z"/>
</defs>
</svg>
