<svg width="27" height="16" viewBox="0 0 27 16" version="1.1" xmlns="http://www.w3.org/2000/svg" xmlns:xlink="http://www.w3.org/1999/xlink">
<title>behance-logo</title>
<desc>Created using Figma</desc>
<g id="Canvas" transform="translate(-879 -102)">
<g id="behance-logo">
<g id="Group">
<g id="Behance">
<use xlink:href="#path0_fill" transform="translate(879 102)" fill="#626D73"/>
</g>
</g>
</g>
</g>
<defs>
<path id="path0_fill" d="M 24.0819 2.2642L 17.4002 2.2642L 17.4002 0.663782L 24.0825 0.663782L 24.0825 2.2642L 24.0819 2.2642L 24.0819 2.2642ZM 12.9521 8.82699C 13.3832 9.47093 13.5987 10.2528 13.5987 11.1707C 13.5987 12.12 13.3557 12.9715 12.8616 13.7237C 12.5472 14.2215 12.1568 14.6419 11.6878 14.9804C 11.1596 15.3719 10.5342 15.6403 9.8153 15.7838C 9.09408 15.9274 8.31347 16 7.47259 16L 0 16L 0 9.8521e-08L 8.01321 9.8521e-08C 10.033 0.0316856 11.465 0.595987 12.3106 1.7042C 12.818 2.38389 13.0694 3.19946 13.0694 4.14746C 13.0694 5.12564 12.8149 5.90834 12.3026 6.50301C 12.0176 6.83642 11.5966 7.13971 11.0392 7.41346C 11.8834 7.71148 12.524 8.18079 12.9521 8.82699ZM 3.82663 6.30799L 7.33768 6.30799C 8.05921 6.30799 8.64249 6.17575 9.09172 5.91139C 9.54065 5.64744 9.76465 5.17825 9.76465 4.50461C 9.76465 3.76036 9.46805 3.26636 8.87343 3.0286C 8.36232 2.86342 7.70837 2.77834 6.91486 2.77834L 3.82663 2.77834L 3.82663 6.30799ZM 10.1027 10.9422C 10.1027 10.111 9.75045 9.53645 9.04733 9.22814C 8.65414 9.05292 8.09939 8.96336 7.38809 8.95696L 3.82663 8.95696L 3.82663 13.2209L 7.33297 13.2209C 8.05332 13.2209 8.61087 13.1299 9.01323 12.9403C 9.73886 12.5915 10.1027 11.9277 10.1027 10.9422ZM 26.561 8.33921C 26.6417 8.86268 26.6783 9.62218 26.6634 10.6149L 18.0099 10.6149C 18.0577 11.7667 18.47 12.5722 19.252 13.0331C 19.7237 13.3222 20.2955 13.4633 20.965 13.4633C 21.6711 13.4633 22.2465 13.2912 22.6895 12.9374C 22.9309 12.7498 23.1438 12.4851 23.3278 12.1511L 26.4996 12.1511C 26.4166 12.8314 26.0347 13.5214 25.3483 14.2225C 24.285 15.3369 22.7937 15.8957 20.8785 15.8957C 19.2963 15.8957 17.9019 15.4245 16.6916 14.4853C 15.4853 13.5429 14.8795 12.0144 14.8795 9.8942C 14.8795 7.90596 15.4234 6.38416 16.5148 5.3249C 17.6103 4.26368 19.0241 3.73549 20.7668 3.73549C 21.7998 3.73549 22.7309 3.91352 23.5616 4.27145C 24.3897 4.62974 25.0741 5.19362 25.6131 5.9686C 26.1009 6.65109 26.4146 7.44024 26.561 8.33921ZM 23.439 8.63778C 23.3808 7.84133 23.1051 7.23853 22.6085 6.82656C 22.1161 6.41345 21.5009 6.20606 20.7668 6.20606C 19.9679 6.20606 19.351 6.42774 18.9127 6.86345C 18.4714 7.29825 18.1968 7.8894 18.0843 8.63784L 23.439 8.63784L 23.439 8.63778Z"/>
</defs>
</svg>
