<svg width="32" height="23" viewBox="0 0 32 23" version="1.1" xmlns="http://www.w3.org/2000/svg" xmlns:xlink="http://www.w3.org/1999/xlink">
<title>close-envelope</title>
<desc>Created using Figma</desc>
<g id="Canvas" transform="translate(-882 -299)">
<g id="close-envelope">
<g id="Group">
<g id="Group">
<g id="Vector">
<use xlink:href="#path0_fill" transform="translate(882.722 311.535)" fill="#626D73"/>
</g>
<g id="Vector">
<use xlink:href="#path1_fill" transform="translate(882.727 299)" fill="#626D73"/>
</g>
<g id="Vector">
<use xlink:href="#path2_fill" transform="translate(882 301.007)" fill="#626D73"/>
</g>
<g id="Vector">
<use xlink:href="#path3_fill" transform="translate(902.953 301)" fill="#626D73"/>
</g>
</g>
</g>
</g>
</g>
<defs>
<path id="path0_fill" d="M 15.2777 3.46514L 11.3189 4.70843e-07L 3.32424e-08 9.70286C 0.411429 10.0846 0.966857 10.3223 1.57943 10.3223L 28.976 10.3223C 29.5863 10.3223 30.1394 10.0846 30.5486 9.70286L 19.2366 4.70843e-07L 15.2777 3.46514Z"/>
<path id="path1_fill" d="M 30.5509 0.619428C 30.1394 0.235428 29.5863 0 28.9714 0L 1.57486 0C 0.964571 0 0.411429 0.237714 -2.5613e-08 0.624L 15.2731 13.7143L 30.5509 0.619428Z"/>
<path id="path2_fill" d="M 0 4.79562e-08L 0 18.9897L 11.0469 9.60229L 0 4.79562e-08Z"/>
<path id="path3_fill" d="M -4.18527e-07 9.60914L 11.0469 18.9966L 11.0469 0L -4.18527e-07 9.60914Z"/>
</defs>
</svg>
