<svg width="120" height="120" viewBox="0 0 120 120" version="1.1" xmlns="http://www.w3.org/2000/svg" xmlns:xlink="http://www.w3.org/1999/xlink">
<title>css</title>
<desc>Created using Figma</desc>
<g id="Canvas" transform="translate(-1212 -341)">
<g id="css">
<g id="Ellipse">
<use xlink:href="#path0_fill" transform="translate(1212 341)" fill="#CBDC3D"/>
</g>
<g id="css-logo">
<g id="Vector">
<use xlink:href="#path1_fill" transform="translate(1242 367)" fill="#2D3940"/>
</g>
<g id="Vector">
<use xlink:href="#path2_fill" transform="translate(1272 372.008)" fill="#2D3940"/>
</g>
<g id="Vector">
<use xlink:href="#path3_fill" transform="translate(1252.77 378.527)" fill="#FFFFFF"/>
</g>
</g>
</g>
</g>
<defs>
<path id="path0_fill" d="M 120 60C 120 93.1371 93.1371 120 60 120C 26.8629 120 0 93.1371 0 60C 0 26.8629 26.8629 0 60 0C 93.1371 0 120 26.8629 120 60Z"/>
<path id="path1_fill" d="M 5.46031 61.2445L -1.26693e-07 4.39203e-07L 60 4.39203e-07L 54.5339 61.2348L 29.9633 68.0467L 5.46031 61.2445Z"/>
<path id="path2_fill" d="M 0 57.8324L 19.8543 52.3281L 24.5254 -5.06773e-08L 0 -5.06773e-08L 0 57.8324Z"/>
<path id="path3_fill" d="M 0.101573 3.37849e-08L 0.058951 7.57867L 30.9057 7.57867L 30.8946 12.474L 0.0274002 12.474L 0.00512119 20.0526L 30.8519 20.0526L 30.8113 28.6963L 19.1787 32.8132L 7.60455 28.6963L 7.61327 24.9479L 0.0347336 24.9479L 6.75697e-07 34.0423L 19.1457 40.863L 38.3639 34.0423L 38.4285 20.36L 38.448 17.6153L 38.5266 0.000278759L 0.101573 3.37849e-08Z"/>
</defs>
</svg>
