<svg width="30" height="30" viewBox="0 0 30 30" version="1.1" xmlns="http://www.w3.org/2000/svg" xmlns:xlink="http://www.w3.org/1999/xlink">
<title>desenvolvedor-icone</title>
<desc>Created using Figma</desc>
<g id="Canvas" transform="translate(-1630 259)">
<g id="desenvolvedor-icone">
<g id="Ellipse">
<use xlink:href="#path0_fill" transform="translate(1630 -259)" fill="#CBDC3D"/>
</g>
<g id="noun_840039_cc">
<g id="Group">
<g id="Vector">
<use xlink:href="#path1_fill" transform="translate(1642.44 -243.492)" fill="#626D73"/>
</g>
<g id="Vector">
<use xlink:href="#path2_fill" transform="translate(1640.7 -251.35)" fill="#626D73"/>
</g>
<g id="Vector">
<use xlink:href="#path3_fill" transform="translate(1637.66 -239.555)" fill="#626D73"/>
</g>
<g id="Vector">
<use xlink:href="#path4_fill" transform="translate(1635 -254)" fill="#626D73"/>
</g>
</g>
</g>
</g>
</g>
<defs>
<path id="path0_fill" d="M 30 15C 30 23.2843 23.2843 30 15 30C 6.71573 30 0 23.2843 0 15C 0 6.71573 6.71573 0 15 0C 23.2843 0 30 6.71573 30 15Z"/>
<path id="path1_fill" d="M 2.46855 1.51263C 1.56995 1.51263 0.75671 1.12502 0.0510084 0.360456C -0.0209882 0.282346 -0.0162336 0.160541 0.0618758 0.0885442C 0.140212 0.0167741 0.261791 0.0213021 0.333787 0.099638C 0.963644 0.78202 1.6818 1.12797 2.46855 1.12797C 3.36172 1.12797 4.1041 0.547013 4.56981 0.0595649C 4.64339 -0.0174126 4.76497 -0.0201295 4.84195 0.0534519C 4.9187 0.126807 4.92164 0.248612 4.84806 0.325363C 4.10591 1.10193 3.28316 1.51263 2.46855 1.51263Z"/>
<path id="path2_fill" d="M 0.192322 3.83279C 0.0938359 3.83279 0.00984016 3.75763 0.000783988 3.65756C -0.00872499 3.55183 0.0693845 3.45832 0.175342 3.44881L 0.446121 3.42481C 0.562493 3.16083 0.871534 2.4429 1.01983 1.94526C 1.32434 0.922819 1.2845 0.381713 1.28404 0.376053C 1.27725 0.293868 1.32389 0.216212 1.39951 0.183383C 1.47558 0.150781 1.56365 0.169346 1.61889 0.230928C 1.62999 0.24338 2.74322 1.45464 4.27348 1.24228C 4.79059 1.17028 5.5178 0.726753 6.04872 0.402995C 6.65707 0.032145 6.88483 -0.106867 7.04467 0.0880671C 7.65166 0.828635 7.88305 2.63353 7.94214 3.19999L 8.16311 3.20905C 8.26929 3.21358 8.35193 3.30301 8.3474 3.40942C 8.3431 3.5156 8.25118 3.59507 8.14726 3.59371L 7.75853 3.57786C 7.6614 3.57379 7.58261 3.49794 7.57446 3.40127C 7.57265 3.37908 7.3922 1.24794 6.80627 0.410919C 6.68333 0.466615 6.44629 0.611287 6.24886 0.731508C 5.68919 1.07293 4.92259 1.54022 4.32646 1.62331C 3.09279 1.79493 2.12695 1.17911 1.6524 0.787203C 1.6241 1.07474 1.55392 1.49902 1.38819 2.05507C 1.1971 2.69715 0.768973 3.64556 0.750861 3.68563C 0.722334 3.7488 0.661658 3.79181 0.592605 3.79793L 0.209076 3.83211C 0.203869 3.83257 0.198208 3.83279 0.192322 3.83279Z"/>
<path id="path3_fill" d="M 0.800545 3.07299C 0.712701 3.07299 0.633232 3.01208 0.613082 2.92288L 0.00473423 0.234781C -0.00817081 0.177727 0.00564006 0.117731 0.0420911 0.0722238C 0.0785422 0.0264902 0.134011 8.0148e-07 0.192423 8.0148e-07L 14.4016 8.0148e-07C 14.46 8.0148e-07 14.5154 0.0264902 14.5519 0.0722238C 14.5883 0.117731 14.6021 0.177727 14.5892 0.234781L 13.9813 2.92061C 13.9578 3.02431 13.8534 3.08951 13.7511 3.06597C 13.6474 3.04242 13.5824 2.93941 13.6057 2.83571L 14.1604 0.384661L 0.433318 0.384661L 0.988461 2.83798C 1.01201 2.94167 0.946802 3.04468 0.843109 3.06823C 0.829072 3.0714 0.814809 3.07299 0.800545 3.07299Z"/>
<path id="path4_fill" d="M 16.1668 19.2969L 3.74984 19.2969C 3.59294 19.2969 3.45664 19.1893 3.41974 19.037L 3.08896 17.6668L 0.339736 17.6668C 0.23559 17.6668 0.137104 17.619 0.0725792 17.537C 0.00828044 17.4551 -0.0150392 17.348 0.0096389 17.2468C 0.285173 16.1166 0.970046 13.4448 1.37644 13.049C 1.551 12.879 3.46344 12.1063 7.06213 10.7517C 6.32043 9.77998 5.97064 8.66675 5.84634 8.19266C 5.54409 7.91147 5.31972 7.38168 5.31837 6.91439C 5.31746 6.57546 5.4293 6.27887 5.6376 6.05699C 5.44176 5.50253 4.95702 4.08297 5.73631 2.35415C 6.30232 1.09806 6.96478 0.461412 7.70512 0.461412C 8.16472 0.461412 8.52878 0.715437 8.75133 0.925767C 9.19056 0.593405 10.1209 5.18198e-08 11.1625 5.18198e-08C 12.012 5.18198e-08 13.2006 0.409565 14.0397 2.35958C 14.3551 3.09246 14.272 4.49322 14.2172 5.42012C 14.2054 5.61822 14.1925 5.8367 14.1911 5.95715C 14.4241 6.20597 14.5432 6.55667 14.5287 6.9617C 14.5117 7.43217 14.3177 7.91781 14.0524 8.18089C 13.8694 8.88908 13.413 9.86851 12.7358 10.7062C 14.5079 11.3136 18.3561 12.6585 18.7731 13.0248C 19.2051 13.4043 19.7102 15.7856 19.9796 17.2112C 19.993 17.2477 20 17.2869 20 17.3278C 20 17.5153 19.8481 17.6675 19.6604 17.6675C 19.6588 17.6675 19.6575 17.6675 19.6559 17.6675L 16.8276 17.6675L 16.4968 19.0379C 16.4599 19.1896 16.3234 19.2969 16.1668 19.2969ZM 4.01722 18.6177L 15.8991 18.6177L 16.2299 17.2472C 16.2668 17.0949 16.4031 16.9876 16.56 16.9876L 19.2445 16.9876C 18.9364 15.4308 18.5198 13.7627 18.3167 13.5267C 18.0101 13.2899 14.8495 12.1407 12.0369 11.1846C 11.9271 11.1472 11.844 11.0567 11.8164 10.9439C 11.7888 10.8312 11.8207 10.7123 11.9008 10.6283C 12.7134 9.77772 13.2563 8.62781 13.4168 7.91962C 13.4354 7.83834 13.483 7.76634 13.5509 7.71789C 13.6507 7.6468 13.8361 7.32486 13.85 6.93635C 13.8561 6.76224 13.8271 6.52497 13.6537 6.38143C 13.4879 6.24445 13.4956 6.11224 13.5391 5.37891C 13.5839 4.62159 13.6675 3.21222 13.4157 2.62719C 12.8594 1.3342 12.1012 0.678533 11.1623 0.678533C 10.0077 0.678533 8.9551 1.63328 8.94468 1.64279C 8.87246 1.70913 8.77578 1.74082 8.67752 1.73041C 8.57994 1.71954 8.49187 1.66724 8.43595 1.58641C 8.43369 1.58324 8.11446 1.13995 7.70489 1.13995C 7.26838 1.13995 6.78909 1.67018 6.3553 2.63263C 5.67835 4.13482 6.11893 5.38118 6.28488 5.85051C 6.35484 6.04794 6.44156 6.29381 6.21244 6.4532C 6.06686 6.55395 5.99667 6.70383 5.99735 6.9119C 5.99826 7.25761 6.20429 7.62756 6.3399 7.72039C 6.40941 7.76793 6.45854 7.83947 6.47823 7.92143C 6.57219 8.31221 6.95119 9.66497 7.87922 10.6702C 7.95597 10.7533 7.98631 10.869 7.96005 10.979C 7.93401 11.0888 7.85477 11.1787 7.74882 11.2186C 5.65729 12.0037 2.25036 13.3128 1.84012 13.548C 1.64586 13.8152 1.16158 15.4503 0.773527 16.9873L 3.35589 16.9873C 3.51279 16.9873 3.64909 17.0949 3.68599 17.2472L 4.01722 18.6177Z"/>
</defs>
</svg>
