<svg width="30" height="30" viewBox="0 0 30 30" version="1.1" xmlns="http://www.w3.org/2000/svg" xmlns:xlink="http://www.w3.org/1999/xlink">
<title>estagiario-icone</title>
<desc>Created using Figma</desc>
<g id="Canvas" transform="translate(-1630 125)">
<g id="estagiario-icone">
<g id="Ellipse">
<use xlink:href="#path0_fill" transform="translate(1630 -125)" fill="#CBDC3D"/>
</g>
<g id="noun_839993_cc">
<g id="Group">
<g id="Vector">
<use xlink:href="#path1_fill" transform="translate(1645.45 -114.036)" fill="#626D73"/>
</g>
<g id="Vector">
<use xlink:href="#path2_fill" transform="translate(1642.16 -114.036)" fill="#626D73"/>
</g>
<g id="Vector">
<use xlink:href="#path3_fill" transform="translate(1640.92 -113.394)" fill="#626D73"/>
</g>
<g id="Vector">
<use xlink:href="#path4_fill" transform="translate(1647.74 -113.394)" fill="#626D73"/>
</g>
<g id="Vector">
<use xlink:href="#path5_fill" transform="translate(1644.4 -113.36)" fill="#626D73"/>
</g>
<g id="Vector">
<use xlink:href="#path6_fill" transform="translate(1635 -119)" fill="#626D73"/>
</g>
<g id="Vector">
<use xlink:href="#path7_fill" transform="translate(1642.45 -109.05)" fill="#626D73"/>
</g>
<g id="Vector">
<use xlink:href="#path8_fill" transform="translate(1640.78 -116.767)" fill="#626D73"/>
</g>
<g id="Vector">
<use xlink:href="#path9_fill" transform="translate(1641.72 -108.271)" fill="#626D73"/>
</g>
</g>
</g>
</g>
</g>
<defs>
<path id="path0_fill" d="M 30 15C 30 23.2843 23.2843 30 15 30C 6.71573 30 0 23.2843 0 15C 0 6.71573 6.71573 0 15 0C 23.2843 0 30 6.71573 30 15Z"/>
<path id="path1_fill" d="M 1.94706 2.1431L 0.597261 2.1431C 0.267776 2.1431 8.83813e-08 1.87532 8.83813e-08 1.54606L 8.83813e-08 0.597261C 8.83813e-08 0.267999 0.267776 1.15576e-07 0.597261 1.15576e-07L 1.94706 1.15576e-07C 2.27654 1.15576e-07 2.54432 0.267999 2.54432 0.597261L 2.54432 1.54606C 2.54432 1.87532 2.27654 2.1431 1.94706 2.1431ZM 0.597483 0.378941C 0.476962 0.378941 0.378941 0.476962 0.378941 0.597261L 0.378941 1.54606C 0.378941 1.66658 0.476962 1.76438 0.597483 1.76438L 1.94728 1.76438C 2.0678 1.76438 2.16582 1.66658 2.16582 1.54606L 2.16582 0.597261C 2.16582 0.476739 2.0678 0.378941 1.94728 0.378941L 0.597483 0.378941Z"/>
<path id="path2_fill" d="M 1.94706 2.1431L 0.597038 2.1431C 0.267776 2.1431 3.39928e-07 1.87532 3.39928e-07 1.54606L 3.39928e-07 0.597261C 3.39928e-07 0.267999 0.267776 1.15576e-07 0.597038 1.15576e-07L 1.94706 1.15576e-07C 2.27632 1.15576e-07 2.54409 0.267999 2.54409 0.597261L 2.54409 1.54606C 2.54387 1.87532 2.2761 2.1431 1.94706 2.1431ZM 0.597038 0.378941C 0.47674 0.378941 0.378718 0.476962 0.378718 0.597261L 0.378718 1.54606C 0.378718 1.66658 0.47674 1.76438 0.597038 1.76438L 1.94706 1.76438C 2.06735 1.76438 2.16538 1.66658 2.16538 1.54606L 2.16538 0.597261C 2.16538 0.476739 2.06735 0.378941 1.94706 0.378941L 0.597038 0.378941Z"/>
<path id="path3_fill" d="M 1.39235 0.378718L 0.189359 0.378718C 0.0846542 0.378718 -6.79856e-08 0.293841 -6.79856e-08 0.189359C -6.79856e-08 0.0848774 0.0846542 3.53525e-07 0.189359 3.53525e-07L 1.39235 3.53525e-07C 1.49705 3.53525e-07 1.5817 0.0848774 1.5817 0.189359C 1.5817 0.293841 1.49705 0.378718 1.39235 0.378718Z"/>
<path id="path4_fill" d="M 1.23195 0.378718L 0.189359 0.378718C 0.0846547 0.378718 -4.07914e-07 0.293841 -4.07914e-07 0.189359C -4.07914e-07 0.0848774 0.0846547 3.53525e-07 0.189359 3.53525e-07L 1.23195 3.53525e-07C 1.33665 3.53525e-07 1.42131 0.0848774 1.42131 0.189359C 1.42131 0.293841 1.33665 0.378718 1.23195 0.378718Z"/>
<path id="path5_fill" d="M 1.24977 0.623325C 1.15398 0.623325 1.07511 0.552483 1.06219 0.460254C 1.0261 0.429065 0.861027 0.37894 0.679687 0.37894C 0.498348 0.37894 0.32191 0.429065 0.28582 0.460254C 0.272899 0.55226 0.285152 0.623325 0.189359 0.623325C 0.0846546 0.623325 2.92338e-07 0.538448 2.92338e-07 0.433966C 2.92338e-07 0.155497 0.255523 -4.01115e-07 0.672558 -4.01115e-07C 1.08959 -4.01115e-07 1.38967 0.175101 1.38967 0.426615C 1.38967 0.531096 1.35425 0.623325 1.24977 0.623325Z"/>
<path id="path6_fill" d="M 19.6661 17.2771C 19.6649 17.2771 19.6632 17.2773 19.6616 17.2771L 0.334287 17.2771C 0.23181 17.2771 0.134903 17.2301 0.0716347 17.1495C 0.00814375 17.0688 -0.0148021 16.9637 0.00948044 16.8641C 0.285053 15.729 0.969865 13.0459 1.37576 12.651C 1.5493 12.4821 3.48789 11.6692 7.1394 10.2347C 6.51207 9.38018 6.09459 8.37123 5.93196 7.77865C 5.62943 7.49884 5.40443 6.96886 5.40309 6.50147C 5.4022 6.21031 5.48485 5.95055 5.64079 5.74292C 5.12908 5.06301 4.65702 3.74953 5.60827 2.30506C 5.98788 1.72918 6.45192 1.44002 6.85381 1.29677C 6.842 1.29276 6.83153 1.28987 6.82262 1.28853C 6.69274 1.26826 6.57912 1.17269 6.54437 1.04571C 6.50962 0.918725 6.54504 0.782164 6.64663 0.698401C 7.07369 0.346193 7.49785 0.16775 7.90753 0.16775C 8.36333 0.16775 8.68925 0.387629 8.87928 0.566963C 9.31659 0.372703 10.295 2.71942e-08 11.3643 2.71942e-08C 12.7845 2.71942e-08 13.8748 0.665875 14.5166 1.92567C 15.2355 3.33539 14.6142 5.04541 14.3522 5.64357C 14.5306 5.88216 14.62 6.19449 14.6073 6.54803C 14.5903 7.0192 14.3954 7.5053 14.1292 7.76684C 13.9895 8.26363 13.5495 9.33339 12.8436 10.2666C 14.5629 10.8823 18.351 12.2638 18.7678 12.63C 19.1989 13.0087 19.7082 15.398 19.9797 16.8278C 19.9931 16.8636 20 16.9024 20 16.9427C 20.0002 17.1276 19.851 17.2771 19.6661 17.2771ZM 0.761124 16.6088L 19.2566 16.6088C 18.9449 15.0413 18.5234 13.3601 18.3196 13.125C 18.0204 12.8887 14.9274 11.716 12.1741 10.7373C 12.0694 10.7001 11.9901 10.6135 11.9625 10.5061C 11.9346 10.3987 11.962 10.2844 12.0356 10.2011C 12.9189 9.20107 13.4228 7.87733 13.5065 7.50842C 13.5246 7.42844 13.5716 7.35782 13.6384 7.31015C 13.7554 7.22661 13.9269 6.8871 13.9401 6.52397C 13.9463 6.34865 13.9171 6.10917 13.7418 5.96392C 13.6208 5.86389 13.5861 5.6928 13.6578 5.55334C 13.6676 5.53418 14.6333 3.62411 13.9222 2.22909C 13.3943 1.19341 12.5339 0.668326 11.365 0.668326C 10.1192 0.668326 8.96349 1.26625 8.9519 1.27227C 8.7993 1.35247 8.61017 1.30324 8.51616 1.15799C 8.50903 1.14752 8.29316 0.835853 7.9082 0.835853C 7.79236 0.835853 7.67005 0.863032 7.54174 0.916943C 7.72241 1.03769 7.88303 1.16734 7.97838 1.24732C 8.09244 1.34333 8.12897 1.50329 8.06793 1.6394C 8.00711 1.77552 7.86409 1.85483 7.71572 1.83366C 7.70993 1.83299 7.67406 1.82943 7.61837 1.82943C 7.34881 1.82943 6.66779 1.91163 6.16677 2.67219C 5.10235 4.28798 6.2815 5.47225 6.33207 5.52193C 6.40335 5.59166 6.43967 5.68946 6.43142 5.78904C 6.42296 5.8884 6.37061 5.97884 6.28863 6.03543C 6.14182 6.13724 6.07053 6.28872 6.0712 6.49902C 6.07231 6.84678 6.27994 7.21903 6.41672 7.31282C 6.48489 7.35938 6.53323 7.43 6.55261 7.51042C 6.65019 7.91587 7.08861 9.18235 7.93471 10.1621C 8.00533 10.2443 8.03229 10.3555 8.006 10.4609C 7.97993 10.566 7.90441 10.6522 7.8035 10.6917C 5.68401 11.5222 2.23345 12.9043 1.83267 13.1411C 1.63841 13.4053 1.15076 15.0578 0.761124 16.6088Z"/>
<path id="path7_fill" d="M 2.60444 1.61959C 1.68193 1.61959 0.773454 1.15577 0.0460928 0.313461C -0.0222993 0.234376 -0.0136107 0.114746 0.0656973 0.0463541C 0.144782 -0.0222607 0.264412 -0.0137957 0.332804 0.0657351C 0.987318 0.823394 1.79399 1.24065 2.60444 1.24065C 3.33359 1.24065 4.12645 0.816711 4.7794 0.0777652C 4.84868 -0.000874505 4.96876 -0.00778071 5.04651 0.0610569C 5.12492 0.13034 5.1325 0.24997 5.06299 0.328387C 4.3383 1.14887 3.4423 1.61959 2.60444 1.61959Z"/>
<path id="path8_fill" d="M 0.189172 3.83348C 0.147959 3.83348 0.106523 3.81989 0.0717696 3.79227C -0.0102117 3.72722 -0.0240238 3.60803 0.0410265 3.52628C 1.058 2.24554 1.28322 0.358856 1.28545 0.33992C 1.29391 0.265958 1.34515 0.203804 1.416 0.181081C 1.48662 0.158358 1.56481 0.179522 1.61449 0.23477C 1.62563 0.247022 2.73928 1.46026 4.27376 1.24751C 4.79884 1.17421 5.58969 0.69391 6.11299 0.375786C 6.67839 0.0324897 6.81629 -0.0448131 6.9631 0.0217967C 7.02013 0.0480842 7.0736 0.118704 7.08384 0.180858C 7.33781 1.71244 8.30822 3.28924 8.31802 3.30484C 8.37305 3.39372 8.34564 3.51046 8.25698 3.56548C 8.16787 3.62073 8.05136 3.59333 7.99611 3.50444C 7.95623 3.44028 7.05555 1.9762 6.74679 0.441283C 6.62961 0.504996 6.46319 0.606136 6.3097 0.699257C 5.72692 1.05325 4.92894 1.53823 4.32611 1.62221C 3.04916 1.80066 2.06004 1.13411 1.60491 0.746039C 1.48639 1.38518 1.15379 2.73409 0.337986 3.76153C 0.300337 3.80875 0.245089 3.83348 0.189172 3.83348Z"/>
<path id="path9_fill" d="M 3.3971 5.2009L 3.31713 5.2009C 3.2601 5.2009 3.20641 5.17528 3.17032 5.13117C 3.05715 4.99238 0.393202 1.71402 0.00624165 0.237467C -0.0202686 0.136327 0.0401033 0.0329594 0.141243 0.00622633C 0.242383 -0.0202839 0.345973 0.0403106 0.372484 0.141451C 0.697736 1.38231 2.86133 4.13848 3.36101 4.76404C 3.85379 4.19061 5.91536 1.72962 6.34264 0.208284C 6.37093 0.107812 6.47519 0.0487765 6.57611 0.0772917C 6.6768 0.105584 6.73561 0.210066 6.70732 0.31076C 6.20006 2.11635 3.64728 5.01444 3.53901 5.13696C 3.50315 5.17751 3.45124 5.2009 3.3971 5.2009Z"/>
</defs>
</svg>
