<svg width="30" height="30" viewBox="0 0 30 30" version="1.1" xmlns="http://www.w3.org/2000/svg" xmlns:xlink="http://www.w3.org/1999/xlink">
<title>estudante-icone</title>
<desc>Created using Figma</desc>
<g id="Canvas" transform="translate(-1884 259)">
<g id="estudante-icone">
<g id="Ellipse">
<use xlink:href="#path0_fill" transform="translate(1884 -259)" fill="#CBDC3D"/>
</g>
<g id="noun_839984_cc">
<g id="Group">
<g id="Vector">
<use xlink:href="#path1_fill" transform="translate(1896.41 -242.025)" fill="#626D73"/>
</g>
<g id="Vector">
<use xlink:href="#path2_fill" transform="translate(1901.58 -248.09)" fill="#626D73"/>
</g>
<g id="Vector">
<use xlink:href="#path3_fill" transform="translate(1894.92 -248.079)" fill="#626D73"/>
</g>
<g id="Vector">
<use xlink:href="#path4_fill" transform="translate(1894.54 -241.012)" fill="#626D73"/>
</g>
<g id="Vector">
<use xlink:href="#path5_fill" transform="translate(1894.64 -248.124)" fill="#626D73"/>
</g>
<g id="Vector">
<use xlink:href="#path6_fill" transform="translate(1889 -253)" fill="#626D73"/>
</g>
<g id="Vector">
<use xlink:href="#path7_fill" transform="translate(1894.13 -250.759)" fill="#626D73"/>
</g>
<g id="Vector">
<use xlink:href="#path8_fill" transform="translate(1891.23 -251.152)" fill="#626D73"/>
</g>
<g id="Vector">
<use xlink:href="#path9_fill" transform="translate(1890.58 -247.92)" fill="#626D73"/>
</g>
</g>
</g>
</g>
</g>
<defs>
<path id="path0_fill" d="M 30 15C 30 23.2843 23.2843 30 15 30C 6.71573 30 0 23.2843 0 15C 0 6.71573 6.71573 0 15 0C 23.2843 0 30 6.71573 30 15Z"/>
<path id="path1_fill" d="M 2.50655 1.58466C 1.60548 1.58466 0.778924 1.1741 0.0495129 0.364521C -0.0215939 0.285488 -0.0154796 0.163882 0.0637795 0.092775C 0.143039 0.0216682 0.264645 0.0280097 0.335525 0.107042C 0.988847 0.832151 1.71939 1.19969 2.50655 1.19969C 3.41644 1.19969 4.18141 0.580786 4.66262 0.061525C 4.73486 -0.0166019 4.85669 -0.0206785 4.93459 0.0513341C 5.0125 0.123573 5.01702 0.245406 4.94479 0.323533C 4.17982 1.14851 3.3365 1.58466 2.50655 1.58466Z"/>
<path id="path2_fill" d="M 1.23973 2.12423C 1.22908 2.12423 1.21844 2.12333 1.20757 2.12152C 0.371726 1.98089 0.183543 1.08639 0.0177781 0.297197L 0.00419049 0.232431C -0.0177756 0.128488 0.0488017 0.0263574 0.152744 0.00439126C 0.256234 -0.0182542 0.358818 0.0490024 0.380784 0.152945L 0.394598 0.217937C 0.54202 0.919494 0.694424 1.6446 1.27166 1.74175C 1.37651 1.75941 1.44716 1.85883 1.4295 1.96345C 1.41365 2.05766 1.33212 2.12423 1.23973 2.12423Z"/>
<path id="path3_fill" d="M 0.192383 2.09277C 0.0927433 2.09277 0.00827607 2.016 0.000576608 1.915C -0.00757576 1.80902 0.0716832 1.71663 0.17789 1.70825C 0.456656 1.68696 0.709153 1.09433 0.821022 0.198476C 0.825551 0.162922 0.830307 0.142315 0.831213 0.138691C 0.861105 0.0365604 0.967764 -0.0220912 1.0699 0.00780082C 1.16523 0.0356548 1.22253 0.130539 1.20554 0.226103C 1.10092 1.0624 0.845479 2.04272 0.20733 2.09186C 0.202348 2.09254 0.197365 2.09277 0.192383 2.09277Z"/>
<path id="path4_fill" d="M 4.43162 4.11488C 4.38678 4.11488 4.34194 4.09925 4.30594 4.068L 0.0667059 0.409623C -0.0136856 0.340102 -0.0227436 0.218722 0.046778 0.138105C 0.116526 0.0577131 0.237679 0.0486546 0.318297 0.118176L 4.42936 3.66604L 8.47474 0.0491075C 8.55378 -0.0219993 8.67561 -0.0149789 8.74649 0.0642802C 8.81737 0.143539 8.81058 0.265146 8.73132 0.336026L 4.56002 4.06574C 4.52333 4.09857 4.47759 4.11488 4.43162 4.11488Z"/>
<path id="path5_fill" d="M 8.28145 0.384973L 0.192487 0.384973C 0.0862794 0.384973 5.18314e-08 0.298694 5.18314e-08 0.192487C 5.18314e-08 0.0862796 0.0862794 -1.72771e-07 0.192487 -1.72771e-07L 8.28145 -1.72771e-07C 8.38766 -1.72771e-07 8.47394 0.0862796 8.47394 0.192487C 8.47394 0.298694 8.38766 0.384973 8.28145 0.384973Z"/>
<path id="path6_fill" d="M 19.6603 17.881L 0.339664 17.881C 0.23391 17.881 0.134043 17.8316 0.0697301 17.7476C 0.00541698 17.6636 -0.0158698 17.5542 0.0119841 17.4521C 0.290976 16.4269 0.983701 14 1.38702 13.6073C 1.56116 13.4379 3.46406 12.6456 7.04476 11.2515C 6.32283 10.2884 5.98043 9.1978 5.85814 8.73153C 5.58436 8.47949 5.38349 8.03699 5.35541 7.60152C 5.33005 7.20749 5.44758 6.84879 5.68875 6.57478C 5.65388 6.07544 5.44486 4.19813 5.29495 2.90326L 2.42327 2.13536C 2.27064 2.09459 2.16625 1.95374 2.17168 1.7959C 2.17689 1.63806 2.29035 1.50445 2.44524 1.47388L 9.88428 0.00645515C 9.92798 -0.00237658 9.9726 -0.00192367 10.0163 0.00645515L 17.4146 1.47388C 17.5699 1.50468 17.6834 1.63874 17.6881 1.79703C 17.6929 1.95532 17.5874 2.09573 17.4341 2.13581L 14.4458 2.91323C 14.3518 4.19587 14.227 6.02608 14.217 6.50774C 14.4419 6.75549 14.5565 7.10128 14.5422 7.49894C 14.5252 7.96951 14.3312 8.45503 14.0658 8.71817C 13.888 9.40501 13.4469 10.3609 12.7935 11.1881C 14.5415 11.8167 18.3646 13.2167 18.7808 13.5822C 19.2323 13.9789 19.779 16.4351 19.993 17.4725C 20.0136 17.5726 19.9882 17.6765 19.9237 17.7555C 19.8592 17.835 19.7625 17.881 19.6603 17.881ZM 0.786233 17.2016L 19.2409 17.2016C 18.9345 15.7978 18.5262 14.3055 18.3272 14.0879C 18.0226 13.8483 14.8903 12.6573 12.1013 11.6621C 11.9937 11.6238 11.9126 11.5339 11.8855 11.4229C 11.8583 11.312 11.8886 11.1949 11.9663 11.1111C 12.7503 10.2658 13.2745 9.14322 13.4299 8.45797C 13.4485 8.37667 13.496 8.30489 13.5639 8.25643C 13.6638 8.18532 13.849 7.86308 13.8631 7.47471C 13.8692 7.30056 13.8404 7.06324 13.667 6.91967C 13.4894 6.7727 13.4788 6.76386 13.7859 2.62088C 13.7967 2.47594 13.8984 2.35389 14.039 2.3172L 15.8274 1.85184L 9.9495 0.686046L 4.01253 1.85704L 5.65003 2.29501C 5.69917 2.30814 5.74491 2.33237 5.78364 2.36566L 5.83006 2.40552C 5.89483 2.46122 5.93627 2.53913 5.946 2.62382C 6.43311 6.80734 6.43311 6.80734 6.25602 6.96541C 6.09207 7.11193 6.01688 7.31121 6.03296 7.55759C 6.05425 7.88753 6.23156 8.17671 6.35136 8.25869C 6.42088 8.30625 6.47002 8.37781 6.48972 8.45956C 6.58166 8.84181 6.95214 10.1675 7.85615 11.1709C 7.93088 11.2538 7.96009 11.3684 7.93428 11.4768C 7.90846 11.5853 7.83079 11.6745 7.72662 11.7148C 5.64255 12.524 2.24709 13.8721 1.84989 14.1062C 1.65808 14.3551 1.178 15.8162 0.786233 17.2016Z"/>
<path id="path7_fill" d="M 4.69428 1.71506C 4.67593 1.71506 4.65759 1.71234 4.6397 1.70713L 0.138007 0.377161C 0.0361027 0.347043 -0.0223229 0.240156 0.00802202 0.138025C 0.0381405 0.0358938 0.145706 -0.022305 0.247158 0.00803997L 4.69473 1.32193L 8.93758 0.0909227C 9.03949 0.0619365 9.14638 0.120135 9.17604 0.222266C 9.20571 0.324398 9.14683 0.431058 9.0447 0.460723L 4.74772 1.70736C 4.73051 1.71256 4.71239 1.71506 4.69428 1.71506Z"/>
<path id="path8_fill" d="M 0.570666 0L 0 0L 0 4.07619L 0.570666 4.07619L 0.570666 0Z"/>
<path id="path9_fill" d="M 1.66449 2.62687C 1.66291 2.62687 1.66155 2.62687 1.65996 2.62687L 0.192537 2.62687C 0.130941 2.62687 0.0729687 2.59721 0.036736 2.54739C 0.0005032 2.49734 -0.00968724 2.43326 0.00956142 2.3746L 0.743275 0.132702C 0.769091 0.0534432 0.842915 1.72771e-07 0.92625 1.72771e-07C 1.00959 1.72771e-07 1.08318 0.0534432 1.10923 0.132702L 1.83094 2.33724C 1.84769 2.36577 1.85721 2.39906 1.85721 2.43439C 1.85721 2.5406 1.77093 2.62687 1.66449 2.62687ZM 0.458168 2.2419L 1.39456 2.2419L 0.92625 0.811388L 0.458168 2.2419Z"/>
</defs>
</svg>
