<svg width="31" height="30" viewBox="0 0 31 30" version="1.1" xmlns="http://www.w3.org/2000/svg" xmlns:xlink="http://www.w3.org/1999/xlink">
<title>github-logo</title>
<desc>Created using Figma</desc>
<g id="Canvas" transform="translate(-924 -97)">
<g id="github-logo">
<g id="Group">
<g id="Vector">
<use xlink:href="#path0_fill" transform="translate(924 97)" fill="#626D73"/>
</g>
</g>
</g>
</g>
<defs>
<path id="path0_fill" d="M 28.9208 7.65801C 27.5347 5.30216 25.6546 3.43702 23.28 2.06218C 20.905 0.687277 18.3123 -1.60499e-08 15.4999 -1.60499e-08C 12.6878 -1.60499e-08 10.0942 0.687488 7.71971 2.06218C 5.34487 3.43695 3.46485 5.30216 2.0788 7.65801C 0.692956 10.0138 0 12.5863 0 15.3756C 0 18.726 0.985393 21.7389 2.95667 24.4149C 4.92774 27.091 7.47407 28.9429 10.5954 29.9705C 10.9588 30.0374 11.2278 29.9904 11.4026 29.8305C 11.5776 29.6705 11.665 29.4701 11.665 29.2302C 11.665 29.1901 11.6615 28.8299 11.6548 28.1491C 11.6479 27.4682 11.6446 26.8743 11.6446 26.3675L 11.1804 26.4472C 10.8844 26.501 10.511 26.5237 10.0603 26.5173C 9.6097 26.5111 9.14196 26.4642 8.65767 26.3771C 8.17317 26.2908 7.72254 26.0906 7.30541 25.7769C 6.88849 25.4633 6.59252 25.0527 6.41756 24.5459L 6.21575 24.0851C 6.08123 23.7784 5.86945 23.4377 5.58012 23.0642C 5.29079 22.6904 4.99822 22.437 4.70225 22.3035L 4.56094 22.2032C 4.46678 22.1365 4.37941 22.0561 4.29862 21.9627C 4.21789 21.8694 4.15745 21.776 4.11709 21.6824C 4.07666 21.5888 4.11016 21.512 4.21796 21.4518C 4.32576 21.3916 4.52058 21.3623 4.80326 21.3623L 5.20675 21.4221C 5.47586 21.4757 5.80873 21.6355 6.20578 21.9026C 6.60263 22.1695 6.92885 22.5164 7.18453 22.9433C 7.49414 23.4907 7.86717 23.9078 8.30465 24.1948C 8.74179 24.4818 9.18253 24.6251 9.62645 24.6251C 10.0704 24.6251 10.4538 24.5917 10.7768 24.5253C 11.0995 24.4585 11.4023 24.3582 11.685 24.2248C 11.806 23.3302 12.1357 22.6429 12.6737 22.1625C 11.9069 22.0826 11.2175 21.9622 10.6051 21.8021C 9.99311 21.6418 9.36066 21.3816 8.70821 21.0209C 8.05541 20.6607 7.51387 20.2134 7.08345 19.6797C 6.65296 19.1458 6.29966 18.4449 6.02404 17.5775C 5.74829 16.7098 5.61038 15.7089 5.61038 14.5744C 5.61038 12.9591 6.14195 11.5846 7.20489 10.45C 6.70696 9.23557 6.75397 7.8742 7.34605 6.36599C 7.73625 6.24573 8.3149 6.33598 9.08173 6.63618C 9.84869 6.93652 10.4102 7.1938 10.7669 7.40711C 11.1236 7.62036 11.4094 7.80107 11.6247 7.94762C 12.8763 7.60072 14.1678 7.42724 15.4997 7.42724C 16.8316 7.42724 18.1234 7.60072 19.3751 7.94762L 20.1419 7.46735C 20.6664 7.14689 21.2857 6.85321 21.9984 6.58625C 22.7115 6.31943 23.2568 6.24594 23.6337 6.3662C 24.2389 7.87448 24.2928 9.23579 23.7948 10.4502C 24.8576 11.5848 25.3894 12.9597 25.3894 14.5746C 25.3894 15.7091 25.251 16.7132 24.9757 17.5875C 24.7 18.462 24.3437 19.1623 23.9065 19.6898C 23.4689 20.2171 22.9239 20.661 22.2714 21.0211C 21.6188 21.3815 20.9862 21.6417 20.3742 21.802C 19.7619 21.9623 19.0724 22.0828 18.3056 22.1629C 19.005 22.7633 19.3548 23.711 19.3548 25.0056L 19.3548 29.2296C 19.3548 29.4696 19.4389 29.6699 19.6073 29.83C 19.7754 29.9898 20.041 30.0368 20.4043 29.9699C 23.5261 28.9424 26.0725 27.0905 28.0435 24.4143C 30.0143 21.7383 31 18.7255 31 15.375C 30.9993 12.5861 30.306 10.0138 28.9208 7.65801Z"/>
</defs>
</svg>
