<svg width="32" height="30" viewBox="0 0 32 30" version="1.1" xmlns="http://www.w3.org/2000/svg" xmlns:xlink="http://www.w3.org/1999/xlink">
<title>github</title>
<desc>Created using Figma</desc>
<g id="Canvas" transform="translate(-924 -102)">
<g id="github">
<g id="Group">
<g id="Vector">
<use xlink:href="#path0_fill" transform="translate(924 102)" fill="#626D73"/>
</g>
</g>
</g>
</g>
<defs>
<path id="path0_fill" d="M 29.8537 7.65801C 28.4229 5.30216 26.4822 3.43702 24.031 2.06218C 21.5794 0.687277 18.903 -1.60499e-08 15.9999 -1.60499e-08C 13.0971 -1.60499e-08 10.4198 0.687488 7.96873 2.06218C 5.51729 3.43695 3.57662 5.30216 2.14585 7.65801C 0.715309 10.0138 0 12.5863 0 15.3756C 0 18.726 1.01718 21.7389 3.05205 24.4149C 5.0867 27.091 7.71517 28.9429 10.9372 29.9705C 11.3123 30.0374 11.5899 29.9904 11.7705 29.8305C 11.9511 29.6705 12.0412 29.4701 12.0412 29.2302C 12.0412 29.1901 12.0377 28.8299 12.0307 28.1491C 12.0236 27.4682 12.0202 26.8743 12.0202 26.3675L 11.541 26.4472C 11.2355 26.501 10.8501 26.5237 10.3848 26.5173C 9.91969 26.5111 9.43686 26.4642 8.93695 26.3771C 8.43683 26.2908 7.97165 26.0906 7.54107 25.7769C 7.1107 25.4633 6.80518 25.0527 6.62458 24.5459L 6.41626 24.0851C 6.2774 23.7784 6.05879 23.4377 5.76013 23.0642C 5.46147 22.6904 5.15945 22.437 4.85393 22.3035L 4.70807 22.2032C 4.61087 22.1365 4.52068 22.0561 4.43728 21.9627C 4.35395 21.8694 4.29156 21.776 4.2499 21.6824C 4.20816 21.5888 4.24275 21.512 4.35402 21.4518C 4.4653 21.3916 4.6664 21.3623 4.9582 21.3623L 5.37471 21.4221C 5.6525 21.4757 5.99611 21.6355 6.40597 21.9026C 6.81561 22.1695 7.15236 22.5164 7.41629 22.9433C 7.73589 23.4907 8.12095 23.9078 8.57255 24.1948C 9.02378 24.4818 9.47874 24.6251 9.93698 24.6251C 10.3952 24.6251 10.791 24.5917 11.1245 24.5253C 11.4576 24.4586 11.7701 24.3582 12.0619 24.2248C 12.1869 23.3302 12.5272 22.6429 13.0826 22.1625C 12.291 22.0826 11.5794 21.9622 10.9472 21.8021C 10.3155 21.6418 9.66262 21.3816 8.98912 21.0209C 8.31526 20.6607 7.75625 20.2134 7.31194 19.6797C 6.86757 19.1458 6.50287 18.4449 6.21837 17.5775C 5.93372 16.7098 5.79136 15.7089 5.79136 14.5744C 5.79136 12.9591 6.34008 11.5846 7.4373 10.45C 6.92332 9.23558 6.97184 7.8742 7.58302 6.36599C 7.98581 6.24573 8.58313 6.33598 9.37469 6.63618C 10.1664 6.93652 10.7461 7.1938 11.1143 7.40711C 11.4825 7.62036 11.7775 7.80107 11.9997 7.94762C 13.2916 7.60072 14.6248 7.42724 15.9997 7.42724C 17.3746 7.42724 18.7081 7.60072 20.0001 7.94762L 20.7917 7.46735C 21.333 7.14689 21.9723 6.85321 22.708 6.58625C 23.4441 6.31943 24.007 6.24594 24.396 6.3662C 25.0208 7.87448 25.0765 9.23579 24.5623 10.4502C 25.6595 11.5848 26.2084 12.9597 26.2084 14.5746C 26.2084 15.7091 26.0656 16.7132 25.7813 17.5875C 25.4968 18.462 25.1289 19.1623 24.6777 19.6898C 24.2259 20.2172 23.6634 20.661 22.9899 21.0211C 22.3162 21.3815 21.6632 21.6417 21.0314 21.802C 20.3993 21.9623 19.6877 22.0828 18.8961 22.1629C 19.6181 22.7633 19.9791 23.711 19.9791 25.0056L 19.9791 29.2296C 19.9791 29.4696 20.0659 29.6699 20.2398 29.83C 20.4133 29.9898 20.6875 30.0369 21.0625 29.9699C 24.2851 28.9424 26.9135 27.0905 28.9481 24.4143C 30.9825 21.7383 32 18.7255 32 15.375C 31.9993 12.5861 31.2836 10.0138 29.8537 7.65801Z"/>
</defs>
</svg>
