<svg width="18" height="16" viewBox="0 0 18 16" version="1.1" xmlns="http://www.w3.org/2000/svg" xmlns:xlink="http://www.w3.org/1999/xlink">
<title>github-logo</title>
<desc>Created using Figma</desc>
<g id="Canvas" transform="translate(-924 -102)">
<g id="github-logo">
<g id="Group">
<g id="Vector">
<use xlink:href="#path0_fill" transform="translate(924 102)" fill="#626D73"/>
</g>
</g>
</g>
</g>
<defs>
<path id="path0_fill" d="M 15.922 4.08427C 15.1589 2.82782 14.1238 1.83308 12.8165 1.09983C 11.509 0.366548 10.0816 -8.55996e-09 8.53326 -8.55996e-09C 6.98512 -8.55996e-09 5.55723 0.36666 4.24999 1.09983C 2.94255 1.83304 1.90753 2.82782 1.14446 4.08427C 0.381498 5.34069 0 6.71272 0 8.2003C 0 9.98723 0.542496 11.5941 1.62776 13.0213C 2.71291 14.4486 4.11476 15.4362 5.83319 15.9843C 6.03322 16.02 6.1813 15.9949 6.27758 15.9096C 6.3739 15.8243 6.422 15.7174 6.422 15.5894C 6.422 15.5681 6.42009 15.3759 6.41639 15.0128C 6.41258 14.6497 6.41079 14.333 6.41079 14.0627L 6.15523 14.1052C 5.99228 14.1338 5.78673 14.146 5.53856 14.1426C 5.2905 14.1392 5.03299 14.1142 4.76637 14.0678C 4.49964 14.0218 4.25155 13.915 4.0219 13.7477C 3.79237 13.5804 3.62943 13.3614 3.53311 13.0911L 3.422 12.8454C 3.34795 12.6818 3.23135 12.5001 3.07207 12.3009C 2.91278 12.1015 2.75171 11.9664 2.58876 11.8952L 2.51097 11.8417C 2.45913 11.8061 2.41103 11.7632 2.36655 11.7135C 2.32211 11.6637 2.28883 11.6139 2.26661 11.564C 2.24435 11.514 2.2628 11.4731 2.32215 11.441C 2.38149 11.4088 2.48875 11.3932 2.64437 11.3932L 2.86651 11.4251C 3.01467 11.4537 3.19792 11.5389 3.41652 11.6814C 3.63499 11.8237 3.81459 12.0088 3.95535 12.2364C 4.12581 12.5284 4.33117 12.7508 4.57203 12.9039C 4.81268 13.057 5.05533 13.1334 5.29972 13.1334C 5.54412 13.1334 5.7552 13.1156 5.93305 13.0802C 6.1107 13.0446 6.27738 12.991 6.43301 12.9199C 6.49968 12.4428 6.68118 12.0762 6.97738 11.82C 6.55521 11.7774 6.17566 11.7132 5.83852 11.6278C 5.50158 11.5423 5.1534 11.4035 4.7942 11.2111C 4.43481 11.019 4.13667 10.7805 3.8997 10.4959C 3.6627 10.2111 3.4682 9.83726 3.31646 9.37467C 3.16465 8.91189 3.08872 8.37806 3.08872 7.77302C 3.08872 6.91153 3.38138 6.17843 3.96656 5.57332C 3.69243 4.92564 3.71831 4.19958 4.04428 3.3952C 4.2591 3.33106 4.57767 3.37919 4.99983 3.5393C 5.42208 3.69948 5.73123 3.83669 5.9276 3.95046C 6.12398 4.06419 6.28132 4.16057 6.39985 4.23873C 7.08887 4.05372 7.79991 3.96119 8.53318 3.96119C 9.26644 3.96119 9.97764 4.05372 10.6667 4.23873L 11.0889 3.98259C 11.3776 3.81167 11.7186 3.65505 12.1109 3.51267C 12.5035 3.37036 12.8037 3.33117 13.0112 3.39531C 13.3444 4.19973 13.3741 4.92575 13.0999 5.57343C 13.6851 6.17855 13.9778 6.91183 13.9778 7.77313C 13.9778 8.37817 13.9016 8.91369 13.75 9.38002C 13.5983 9.84642 13.4021 10.2199 13.1614 10.5012C 12.9205 10.7825 12.6205 11.0192 12.2613 11.2113C 11.902 11.4035 11.5537 11.5422 11.2167 11.6277C 10.8796 11.7132 10.5001 11.7775 10.0779 11.8202C 10.463 12.1404 10.6555 12.6458 10.6555 13.3363L 10.6555 15.5891C 10.6555 15.7171 10.7018 15.8239 10.7945 15.9093C 10.8871 15.9946 11.0333 16.0197 11.2334 15.9839C 12.952 15.4359 14.3539 14.4483 15.439 13.021C 16.524 11.5938 17.0667 9.98693 17.0667 8.2C 17.0663 6.7126 16.6846 5.34069 15.922 4.08427Z"/>
</defs>
</svg>
