<svg width="120" height="120" viewBox="0 0 120 120" version="1.1" xmlns="http://www.w3.org/2000/svg" xmlns:xlink="http://www.w3.org/1999/xlink">
<title>html</title>
<desc>Created using Figma</desc>
<g id="Canvas" transform="translate(-1062 -341)">
<g id="html">
<g id="Ellipse">
<use xlink:href="#path0_fill" transform="translate(1062 341)" fill="#CBDC3D"/>
</g>
<g id="HTML5_Badge">
<g id="Vector">
<use xlink:href="#path1_fill" transform="translate(1092 367)" fill="#2D3940"/>
</g>
<g id="Vector">
<use xlink:href="#path2_fill" transform="translate(1122.07 371.927)" fill="#2D3940"/>
</g>
<g id="Vector">
<use xlink:href="#path3_fill" transform="translate(1103.18 379.518)" fill="#EBEBEB"/>
</g>
<g id="Vector">
<use xlink:href="#path4_fill" transform="translate(1121.93 379.518)" fill="#FFFFFF"/>
</g>
</g>
</g>
</g>
<defs>
<path id="path0_fill" d="M 120 60C 120 93.1371 93.1371 120 60 120C 26.8629 120 0 93.1371 0 60C 0 26.8629 26.8629 0 60 0C 93.1371 0 120 26.8629 120 60Z"/>
<path id="path1_fill" d="M 5.45455 61.2571L 0 0L 60 0L 54.5455 61.2571L 29.9335 68.1818"/>
<path id="path2_fill" d="M 0 57.9279L 19.8226 52.468L 24.4789 0L 0 0"/>
<path id="path3_fill" d="M 18.8914 15.1811L 8.91352 15.1811L 8.24834 7.45739L 18.8914 7.45739L 18.8914 0L 18.7583 0L 0 0L 0.133038 1.99751L 1.99557 22.7717L 18.8914 22.7717L 18.8914 15.1811ZM 18.8914 34.7567L 18.7583 34.7567L 10.3769 32.4929L 9.84479 26.5004L 5.85366 26.5004L 2.39468 26.5004L 3.32594 38.3523L 18.7583 42.6136L 18.8914 42.6136L 18.8914 34.7567Z"/>
<path id="path4_fill" d="M 0 15.1811L 0 22.7717L 9.31264 22.7717L 8.38137 32.4929L 0 34.7567L 0 42.6136L 15.4324 38.3523L 15.5654 37.0206L 17.2949 17.1786L 17.561 15.1811L 15.4324 15.1811L 0 15.1811ZM 0 0L 0 4.66087L 0 7.45739L 18.2262 7.45739L 18.3592 5.85938L 18.7583 1.99751L 18.8914 0L 0 0Z"/>
</defs>
</svg>
