<svg width="45" height="45" viewBox="0 0 45 45" version="1.1" xmlns="http://www.w3.org/2000/svg" xmlns:xlink="http://www.w3.org/1999/xlink">
<title>icone samurai</title>
<desc>Created using Figma</desc>
<g id="Canvas" transform="translate(-1060 305)">
<g id="icone samurai">
<g id="Ellipse">
<use xlink:href="#path0_fill" transform="translate(1060 -305)" fill="#CBDC3D"/>
</g>
<g id="noun_145740_cc">
<g id="Group">
<g id="Group">
<g id="Group">
<g id="Vector">
<use xlink:href="#path1_fill" transform="translate(1068 -298)" fill="#626D73"/>
</g>
<g id="Vector">
<use xlink:href="#path2_fill" transform="translate(1077.01 -295.949)" fill="#626D73"/>
</g>
</g>
</g>
</g>
</g>
</g>
</g>
<defs>
<path id="path0_fill" d="M 45 22.5C 45 34.9264 34.9264 45 22.5 45C 10.0736 45 0 34.9264 0 22.5C 0 10.0736 10.0736 0 22.5 0C 34.9264 0 45 10.0736 45 22.5Z"/>
<path id="path1_fill" d="M 29.8546 0.123372C 29.8368 0.0621403 29.7859 0.0158778 29.7229 0.00329142C 29.66 -0.009295 29.5954 0.0148572 29.5557 0.0648627C 29.4545 0.192428 19.1849 13.0221 8.37353 21.8472L 8.33386 21.7985C 8.30513 21.7635 8.26375 21.7417 8.2186 21.737C 8.17346 21.7325 8.12831 21.7461 8.09343 21.7747L 7.65428 22.1319L 7.11903 21.4805C 7.05918 21.4077 6.95145 21.3968 6.87825 21.4563L 6.54548 21.7264C 6.51025 21.755 6.48802 21.7965 6.48323 21.8411C 6.48323 21.8448 6.48288 21.8485 6.48254 21.8523C 6.48117 21.8934 6.49486 21.9339 6.52119 21.9659L 7.0308 22.5857C 5.43428 24.1219 1.37905 27.4485 0.0711931 28.3809C 0.0274155 28.4122 0.00176194 28.4615 5.18795e-05 28.5132C -0.000290133 28.5299 0.00107733 28.5466 0.0058655 28.5629C 0.0113377 28.584 0.147797 29.0799 0.477155 29.4361C 0.930321 29.9253 1.19538 29.9899 1.2436 29.9977C 1.29183 30.0056 1.34074 29.993 1.3787 29.9627C 1.69267 29.7127 2.08598 29.3973 2.52649 29.0442C 4.52521 27.4427 7.4973 25.0615 8.51068 24.3859L 9.02233 25.0087C 9.08218 25.0815 9.18991 25.0924 9.2631 25.0329L 9.59554 24.7628C 9.63077 24.7346 9.653 24.6934 9.65779 24.6485C 9.66292 24.6033 9.64889 24.5587 9.62016 24.5237L 9.08526 23.8722L 9.52475 23.5154C 9.55997 23.4868 9.5822 23.4457 9.58665 23.4008C 9.59075 23.3633 9.57947 23.3297 9.56168 23.2994C 19.0566 15.5543 26.6127 6.471 29.4288 2.91347L 29.5389 2.77434C 29.8235 2.41784 29.9778 1.9416 29.9979 1.35956C 30.0198 0.702007 29.8611 0.146503 29.8546 0.123372ZM 8.17756 22.1458L 8.21723 22.1942C 8.21758 22.1945 8.21757 22.1948 8.21791 22.1952L 9.17486 23.3592L 8.76377 23.6933L 7.7668 22.4799L 8.17756 22.1458ZM 9.17863 24.6621L 8.69605 24.0753C 8.69605 24.075 8.69605 24.0743 8.69571 24.074L 7.41418 22.5149C 7.41145 22.5119 7.407 22.5122 7.40392 22.5095C 7.4005 22.5041 7.39914 22.4976 7.3947 22.4921L 6.89398 21.8826L 6.9617 21.8274L 7.4802 22.4581C 7.48293 22.4615 7.48704 22.4629 7.49011 22.466C 7.49011 22.466 7.49011 22.4663 7.49011 22.4666L 7.49114 22.468C 7.49353 22.4714 7.49422 22.4755 7.4973 22.4789C 7.49969 22.4819 7.50345 22.4833 7.50619 22.486L 8.70494 23.9454C 8.70734 23.9488 8.70802 23.9525 8.71041 23.9556C 8.71041 23.9559 8.7111 23.9559 8.7111 23.9563C 8.7111 23.9563 8.7111 23.9566 8.71144 23.9569L 9.24566 24.607L 9.17863 24.6621ZM 29.6549 1.34765C 29.6375 1.85587 29.5075 2.26442 29.2698 2.56309L 29.159 2.70325C 26.3504 6.25125 18.8155 15.3104 9.34861 23.0337L 8.59105 22.1115C 18.5398 13.9905 28.0279 2.4903 29.5985 0.55573C 29.633 0.762896 29.6655 1.04558 29.6549 1.34765Z"/>
<path id="path2_fill" d="M 19.6216 0.0383651C 16.0681 4.50076 7.92036 13.498 0.03698 19.9939C 0.0133812 20.0133 0.00106813 20.0409 4.20931e-05 20.0691C -0.000641931 20.0933 0.00688242 20.1178 0.023641 20.1378C 0.0595523 20.181 0.124192 20.1872 0.167969 20.1511C 8.06332 13.6453 16.2237 4.63479 19.7824 0.165593C 19.8179 0.12171 19.8104 0.0574158 19.7659 0.022378C 19.7211 -0.013 19.6568 -0.00551721 19.6216 0.0383651Z"/>
</defs>
</svg>
