<svg width="45" height="45" viewBox="0 0 45 45" version="1.1" xmlns="http://www.w3.org/2000/svg" xmlns:xlink="http://www.w3.org/1999/xlink">
<title>icone-skills</title>
<desc>Created using Figma</desc>
<g id="Canvas" transform="translate(-1058 -286)">
<g id="icone-skills">
<g id="Ellipse">
<use xlink:href="#path0_fill" transform="translate(1058 286)" fill="#CBDC3D"/>
</g>
<g id="noun_1264020_cc">
<g id="12-E-mail Marketing">
<g id="Vector">
<use xlink:href="#path1_fill" transform="translate(1063 298)" fill="#626D73"/>
</g>
<g id="Vector">
<use xlink:href="#path2_fill" transform="translate(1065.81 316.701)" fill="#626D73"/>
</g>
<g id="Vector">
<use xlink:href="#path2_fill" transform="translate(1073.69 316.701)" fill="#626D73"/>
</g>
<g id="Vector">
<use xlink:href="#path3_fill" transform="translate(1075.94 301.304)" fill="#626D73"/>
</g>
<g id="Vector">
<use xlink:href="#path4_fill" transform="translate(1079.31 308.453)" fill="#626D73"/>
</g>
<g id="Vector">
<use xlink:href="#path5_fill" transform="translate(1079.31 316.151)" fill="#626D73"/>
</g>
<g id="Vector">
<use xlink:href="#path5_fill" transform="translate(1093.94 318.35)" fill="#626D73"/>
</g>
<g id="Vector">
<use xlink:href="#path6_fill" transform="translate(1081.56 316.151)" fill="#626D73"/>
</g>
<g id="Vector">
<use xlink:href="#path7_fill" transform="translate(1079.31 318.35)" fill="#626D73"/>
</g>
<g id="Vector">
<use xlink:href="#path8_fill" transform="translate(1075.94 303.504)" fill="#626D73"/>
</g>
<g id="Vector">
<use xlink:href="#path9_fill" transform="translate(1079.31 310.652)" fill="#626D73"/>
</g>
</g>
</g>
</g>
</g>
<defs>
<path id="path0_fill" d="M 45 22.5C 45 34.9264 34.9264 45 22.5 45C 10.0736 45 0 34.9264 0 22.5C 0 10.0736 10.0736 0 22.5 0C 34.9264 0 45 10.0736 45 22.5Z"/>
<path id="path1_fill" d="M 14.0007 12.4048C 13.941 12.2889 13.8414 12.1973 13.7194 12.1463L 9.99004 10.5682L 9.68629 9.64991C 10.2062 9.20354 10.6167 8.64854 10.8874 8.02603C 11.1581 7.40352 11.282 6.72946 11.25 6.05376L 11.25 1.6548C 11.2505 1.58243 11.2363 1.5107 11.2083 1.4437C 11.1803 1.37671 11.139 1.31577 11.0869 1.26439C 10.0356 0.39556 8.68789 -0.0540508 7.31254 0.00519054C 5.93719 -0.0540508 4.58952 0.39556 3.53817 1.26439C 3.48604 1.31577 3.4448 1.37671 3.4168 1.4437C 3.38881 1.5107 3.37462 1.58243 3.37505 1.6548L 3.37505 6.05376C 3.34238 6.72902 3.46545 7.40282 3.73515 8.0253C 4.00486 8.64778 4.4143 9.20302 4.93317 9.64991L 4.62942 10.5682L 0.900053 12.1463C 0.778055 12.1973 0.678436 12.2889 0.618804 12.4048L 0.0563044 13.5045C 0.0180974 13.5816 -0.00116429 13.6663 5.44324e-05 13.7519L 5.44324e-05 22L 1.12505 22L 1.12505 13.8839L 1.53568 13.0811L 4.91067 11.6459L 6.75004 13.4275L 6.75004 16.5013L 7.87504 16.5013L 7.87504 13.4275L 9.70317 11.6404L 13.0782 13.0756L 13.5 13.8839L 13.5 22L 14.625 22L 14.625 13.7519C 14.6245 13.6659 14.6033 13.5811 14.5632 13.5045L 14.0007 12.4048ZM 4.50005 1.91324C 5.32463 1.35596 6.31063 1.07259 7.31254 1.10493C 8.31445 1.07259 9.30046 1.35596 10.125 1.91324L 10.125 4.32717C 9.84379 4.25569 9.56254 4.11822 9.56254 3.85428C 9.56254 3.70845 9.50328 3.56859 9.39779 3.46546C 9.2923 3.36234 9.14923 3.30441 9.00004 3.30441L 5.62505 3.30441C 5.47586 3.30441 5.33279 3.36234 5.2273 3.46546C 5.12181 3.56859 5.06255 3.70845 5.06255 3.85428C 5.06255 4.11272 4.7813 4.25019 4.50005 4.32717L 4.50005 1.91324ZM 7.31254 12.4268L 5.71505 10.8651L 5.9288 10.2108C 6.81754 10.5354 7.7963 10.5354 8.68504 10.2108L 8.89879 10.8651L 7.31254 12.4268ZM 7.31254 9.35298C 5.23692 9.35298 4.50005 7.5769 4.50005 6.05376L 4.50005 5.4544C 4.83331 5.42336 5.15325 5.31091 5.43043 5.12738C 5.70761 4.94386 5.93315 4.69516 6.0863 4.40415L 8.53879 4.40415C 8.69194 4.69516 8.91747 4.94386 9.19466 5.12738C 9.47184 5.31091 9.79177 5.42336 10.125 5.4544L 10.125 6.05376C 10.125 7.5769 9.38817 9.35298 7.31254 9.35298Z"/>
<path id="path2_fill" d="M 1.125 0L 0 0L 0 3.29922L 1.125 3.29922L 1.125 0Z"/>
<path id="path3_fill" d="M 22.5 0L 0 0L 0 1.09974L 17.4375 1.09974L 17.4375 4.39896L 0 4.39896L 0 5.4987L 22.5 5.4987C 22.6491 5.4987 22.7922 5.44077 22.8977 5.33765C 23.0032 5.23453 23.0625 5.09467 23.0625 4.94883L 23.0625 0.54987C 23.0625 0.404036 23.0032 0.264174 22.8977 0.161053C 22.7922 0.0579322 22.6491 0 22.5 0ZM 21.9375 4.39896L 18.5625 4.39896L 18.5625 1.09974L 21.9375 1.09974L 21.9375 4.39896Z"/>
<path id="path4_fill" d="M 19.125 0L 0 0L 0 1.09974L 14.0625 1.09974L 14.0625 4.39896L 0 4.39896L 0 5.4987L 19.125 5.4987C 19.2742 5.4987 19.4172 5.44077 19.5227 5.33765C 19.6282 5.23453 19.6875 5.09467 19.6875 4.94883L 19.6875 0.54987C 19.6875 0.404036 19.6282 0.264174 19.5227 0.161053C 19.4172 0.0579322 19.2742 0 19.125 0ZM 18.5625 4.39896L 15.1875 4.39896L 15.1875 1.09974L 18.5625 1.09974L 18.5625 4.39896Z"/>
<path id="path5_fill" d="M 1.125 0L 0 0L 0 1.09974L 1.125 1.09974L 1.125 0Z"/>
<path id="path6_fill" d="M 16.875 0L 0 0L 0 1.09974L 16.875 1.09974L 16.875 0Z"/>
<path id="path7_fill" d="M 13.5 0L 0 0L 0 1.09974L 13.5 1.09974L 13.5 0Z"/>
<path id="path8_fill" d="M 15.75 0L 0 0L 0 1.09974L 15.75 1.09974L 15.75 0Z"/>
<path id="path9_fill" d="M 12.375 0L 0 0L 0 1.09974L 12.375 1.09974L 12.375 0Z"/>
</defs>
</svg>
