<svg width="120" height="120" viewBox="0 0 120 120" version="1.1" xmlns="http://www.w3.org/2000/svg" xmlns:xlink="http://www.w3.org/1999/xlink">
<title>jquery</title>
<desc>Created using Figma</desc>
<g id="Canvas" transform="translate(-1812 -341)">
<g id="jquery">
<g id="Ellipse">
<use xlink:href="#path0_fill" transform="translate(1812 341)" fill="#CBDC3D"/>
</g>
<g id="jquery 2">
<g id="Vector">
<use xlink:href="#path1_fill" transform="translate(1849.33 397.936)" fill="#2D3940"/>
</g>
<g id="Vector">
<use xlink:href="#path2_fill" transform="translate(1853.44 404.042)" fill="#2D3940"/>
</g>
<g id="Vector">
<use xlink:href="#path3_fill" transform="translate(1848.72 408.249)" fill="#2D3940"/>
</g>
<g id="Vector">
<use xlink:href="#path4_fill" transform="translate(1854.33 404.047)" fill="#2D3940"/>
</g>
<g id="Vector">
<use xlink:href="#path5_fill" transform="translate(1854.57 404.41)" fill="#2D3940"/>
</g>
<g id="Vector">
<use xlink:href="#path6_fill" transform="translate(1872.64 391.854)" fill="#2D3940"/>
</g>
<g id="Vector">
<use xlink:href="#path7_fill" transform="translate(1868.57 391.853)" fill="#2D3940"/>
</g>
<g id="Vector">
<use xlink:href="#path8_fill" transform="translate(1857.3 391.494)" fill="#2D3940"/>
</g>
<g id="Vector">
<use xlink:href="#path9_fill" transform="translate(1888.92 404.203)" fill="#2D3940"/>
</g>
<g id="Vector">
<use xlink:href="#path10_fill" transform="translate(1888.55 406.289)" fill="#2D3940"/>
</g>
<g id="Vector">
<use xlink:href="#path11_fill" transform="translate(1881.22 408.379)" fill="#2D3940"/>
</g>
<g id="Vector">
<use xlink:href="#path12_fill" transform="translate(1878.87 401.457)" fill="#2D3940"/>
</g>
<g id="Vector">
<use xlink:href="#path13_fill" transform="translate(1881.49 408.411)" fill="#2D3940"/>
</g>
<g id="Vector">
<use xlink:href="#path14_fill" transform="translate(1888.86 404.203)" fill="#2D3940"/>
</g>
<g id="Vector">
<use xlink:href="#path15_fill" transform="translate(1883.31 408.407)" fill="#2D3940"/>
</g>
<g id="Vector">
<use xlink:href="#path16_fill" transform="translate(1882.36 408.41)" fill="#2D3940"/>
</g>
<g id="Vector">
<use xlink:href="#path17_fill" transform="translate(1882.04 408.411)" fill="#2D3940"/>
</g>
<g id="Vector">
<use xlink:href="#path18_fill" transform="translate(1881.77 408.411)" fill="#2D3940"/>
</g>
<g id="Vector">
<use xlink:href="#path19_fill" transform="translate(1882.13 408.41)" fill="#2D3940"/>
</g>
<g id="Vector">
<use xlink:href="#path20_fill" transform="translate(1882.41 408.407)" fill="#2D3940"/>
</g>
<g id="Vector">
<use xlink:href="#path21_fill" transform="translate(1883.33 408.379)" fill="#2D3940"/>
</g>
<g id="Vector">
<use xlink:href="#path22_fill" transform="translate(1888.55 406.571)" fill="#2D3940"/>
</g>
<g id="Vector">
<use xlink:href="#path23_fill" transform="translate(1881.85 408.411)" fill="#2D3940"/>
</g>
<g id="Vector">
<use xlink:href="#path24_fill" transform="translate(1881.22 408.412)" fill="#2D3940"/>
</g>
<g id="Vector">
<use xlink:href="#path25_fill" transform="translate(1881.56 408.411)" fill="#2D3940"/>
</g>
<g id="Vector">
<use xlink:href="#path26_fill" transform="translate(1826.44 399.518)" fill="#2D3940"/>
</g>
<g id="Vector">
<use xlink:href="#path27_fill" transform="translate(1828.76 391.452)" fill="#2D3940"/>
</g>
<g id="Vector">
<use xlink:href="#path28_fill" transform="translate(1832.01 397.013)" fill="#2D3940"/>
</g>
<g id="Vector">
<use xlink:href="#path29_fill" transform="translate(1821.3 414.973)" fill="#2D3940"/>
</g>
<g id="Vector">
<use xlink:href="#path30_fill" transform="translate(1827.74 397.013)" fill="#2D3940"/>
</g>
<g id="Vector">
<use xlink:href="#path31_fill" transform="translate(1821 396.655)" fill="#2D3940"/>
</g>
<g id="Vector">
<use xlink:href="#path32_fill" transform="translate(1891.3 393.66)" fill="#2D3940"/>
</g>
<g id="Vector">
<use xlink:href="#path33_fill" transform="translate(1895.93 401.792)" fill="#2D3940"/>
</g>
<g id="Vector">
<use xlink:href="#path34_fill" transform="translate(1891.3 400.754)" fill="#2D3940"/>
</g>
<g id="Vector">
<use xlink:href="#path35_fill" transform="translate(1895.1 407.487)" fill="#2D3940"/>
</g>
<g id="Vector">
<use xlink:href="#path36_fill" transform="translate(1896.56 402.147)" fill="#2D3940"/>
</g>
<g id="Vector">
<use xlink:href="#path37_fill" transform="translate(1908.7 394.611)" fill="#2D3940"/>
</g>
<g id="Vector">
<use xlink:href="#path38_fill" transform="translate(1896 404.82)" fill="#2D3940"/>
</g>
<g id="Vector">
<use xlink:href="#path39_fill" transform="translate(1908.65 393.905)" fill="#2D3940"/>
</g>
<g id="Vector">
<use xlink:href="#path40_fill" transform="translate(1897.11 398.727)" fill="#2D3940"/>
</g>
<g id="Vector">
<use xlink:href="#path41_fill" transform="translate(1892.87 393.428)" fill="#2D3940"/>
</g>
<g id="Vector">
<use xlink:href="#path42_fill" transform="translate(1891.34 391.536)" fill="#2D3940"/>
</g>
<g id="Vector">
<use xlink:href="#path43_fill" transform="translate(1904.18 389.059)" fill="#2D3940"/>
</g>
<g id="Vector">
<use xlink:href="#path44_fill" transform="translate(1874.17 391.25)" fill="#2D3940"/>
</g>
<g id="Vector">
<use xlink:href="#path45_fill" transform="translate(1834.93 387)" fill="#2D3940"/>
</g>
<g id="Vector">
<use xlink:href="#path46_fill" transform="translate(1889.04 400.24)" fill="#2D3940"/>
</g>
</g>
</g>
</g>
<defs>
<path id="path0_fill" d="M 120 60C 120 93.1371 93.1371 120 60 120C 26.8629 120 0 93.1371 0 60C 0 26.8629 26.8629 0 60 0C 93.1371 0 120 26.8629 120 60Z"/>
<path id="path1_fill" d="M 0.814636 0.00118477L 0.814879 8.67506e-08L -1.63216e-07 2.81422L 0.814588 0.00118477L 0.814636 0.00118477Z"/>
<path id="path2_fill" d="M 0.897971 0.00521103L -1.64403e-06 5.78337e-07L 0.897971 0.00521103Z"/>
<path id="path3_fill" d="M 5.37913 6.94004e-07L 5.3801 6.94004e-07L -1.78054e-07 0.019093L 5.37937 6.94004e-07L 5.37913 6.94004e-07Z"/>
<path id="path4_fill" d="M 0.898288 0.00521179L -3.20497e-07 -4.77128e-07L 0.898288 0.00521179Z"/>
<path id="path5_fill" d="M 1.48378e-07 3.48271L 0.937159 -8.96422e-07L 1.48378e-07 3.48342L 1.48378e-07 3.48295L 1.48378e-07 3.48271Z"/>
<path id="path6_fill" d="M 1.74582 -5.42191e-08L -3.56107e-08 7.9973L 1.74582 -5.42191e-08L 1.74582 -5.42191e-08Z"/>
<path id="path7_fill" d="M 1.32532 0.00047372L -2.5521e-07 5.97476L 1.32532 2.06033e-07L 1.32532 0.00047372L 1.32532 0.00047372Z"/>
<path id="path8_fill" d="M 16.7877 1.59043e-07L 13.0546 1.59043e-07C 12.8475 1.59043e-07 12.6418 0.161934 12.5976 0.359144L 11.2723 6.3339L 9.94698 12.3087C 9.90306 12.5059 9.6977 12.6672 9.49058 12.6672L 6.8483 12.6672C 4.23421 12.6672 4.53656 10.9056 5.07192 8.49164C 5.07727 8.46735 5.08262 8.44364 5.08794 8.41877L 5.1467 8.11456C 5.15025 8.0949 5.1544 8.07523 5.15766 8.0573L 5.27696 7.43789L 5.40486 6.77397C 5.44374 6.57386 5.50279 6.28122 5.54137 6.09732L 6.14377 3.22886L 6.74679 0.360397C 6.78834 0.162606 6.65242 9.23315e-05 6.4453 9.23315e-05L 2.61351 9.23315e-05C 2.40638 9.23315e-05 2.20131 0.162606 2.15889 0.359829L 1.33508 4.16873L 0.511286 7.97716C 0.510557 7.97882 0.510312 7.98121 0.510069 7.98294L 0.433506 8.3369C -0.515517 12.5587 -0.263857 16.5846 4.89371 16.7106C 4.97799 16.713 5.04328 16.7136 5.04328 16.7136L 13.1391 16.7136C 13.3462 16.7136 13.5513 16.5516 13.5946 16.3538L 15.3404 8.35725L 17.0862 0.359947C 17.1293 0.162154 16.9948 0.00021071 16.7877 0.00021071L 16.7877 1.59043e-07Z"/>
<path id="path9_fill" d="M 0.0611391 5.20503e-07C 0.268571 5.20503e-07 0.404182 0.161936 0.362636 0.359737L -5.93512e-08 2.08607"/>
<path id="path10_fill" d="M 0.00029291 1.7275L 0.362639 -3.75919e-07L 3.57294e-06 1.72807C 3.57294e-06 1.72759 0.000240978 1.72759 0.000240978 1.72759L 0.00029291 1.7275Z"/>
<path id="path11_fill" d="M 6.87956 0.000473383C 6.88005 0.000473383 6.88077 -1.30126e-07 6.88126 -1.30126e-07C 5.78268 0.00866993 2.48135 0.0329651 -3.56107e-07 0.0329651C 3.01982 0.0329651 6.87932 0.000578207 6.87932 0.000578207L 6.87956 0.000473383Z"/>
<path id="path12_fill" d="M 0.124768 0.522241C 0.12173 0.333122 0.342588 0.00750932 0.550027 0.00750932L 0.0838309 -3.03627e-08C -0.126273 2.05888 0.124779 0.522241 0.124779 0.522241L 0.124768 0.522241Z"/>
<path id="path13_fill" d="M 0.0718175 2.45793e-07C 0.0480907 2.45793e-07 0.0237427 -1.45056e-08 -1.16803e-06 0.000473759C 0.0237256 -1.45056e-08 0.0480785 2.45793e-07 0.0718175 2.45793e-07Z"/>
<path id="path14_fill" d="M 0.120196 5.20503e-07C 0.327628 5.20503e-07 0.463239 0.161936 0.421693 0.359737L 0.0590568 2.08607L 2.39067e-06 2.36773"/>
<path id="path15_fill" d="M 0.0153226 2.74658e-06L -2.95403e-06 2.74658e-06L 0.0153226 2.74658e-06Z"/>
<path id="path16_fill" d="M 0.0531229 3.78418e-06L -1.23451e-07 3.78418e-06L 0.0531229 3.78418e-06Z"/>
<path id="path17_fill" d="M 0.0878443 5.06045e-07C 0.0581834 5.06045e-07 0.0290856 2.45769e-07 8.0955e-07 0.00047402C 0.0290832 2.45769e-07 0.0581688 5.06045e-07 0.0878443 5.06045e-07Z"/>
<path id="path18_fill" d="M 0.0771518 1.0376e-06L -1.03746e-06 1.0376e-06L 0.0771518 1.0376e-06Z"/>
<path id="path19_fill" d="M 0.226124 8.96422e-07C 0.150454 8.96422e-07 0.0747805 0.00047441 -2.7539e-07 0.00047441C 0.0747805 0.00047441 0.150454 8.96422e-07 0.226124 8.96422e-07Z"/>
<path id="path20_fill" d="M 0.900648 6.50629e-07C 0.598545 0.00118508 0.297048 0.0023688 9.37749e-07 0.00296101C 0.297048 0.00248724 0.598861 0.00130353 0.900648 6.50629e-07Z"/>
<path id="path21_fill" d="M 4.77575 0L 4.77599 0C 3.97088 0.00637226 1.98274 0.0208221 1.38188e-14 0.0283385C 1.98172 0.0214214 3.97035 0.00637936 4.77575 0L 4.77575 0Z"/>
<path id="path22_fill" d="M 0.00029291 1.44643L 0.303882 -6.36171e-07L 3.57294e-06 1.44757C 3.57294e-06 1.44709 0.000240978 1.44709 0.000240978 1.44638L 0.00029291 1.44643Z"/>
<path id="path23_fill" d="M 0.197046 1.0376e-06L -1.8755e-07 1.0376e-06L 0.197046 1.0376e-06Z"/>
<path id="path24_fill" d="M 0.266488 -6.10352e-08L 1.49565e-06 -6.10352e-08L 0.266488 -6.10352e-08Z"/>
<path id="path25_fill" d="M 0.210104 1.0376e-06L 8.28543e-07 1.0376e-06L 0.210104 1.0376e-06Z"/>
<path id="path26_fill" d="M 0.71934 2.50484L 1.29919 -3.54231e-07L 0.636248 2.86325L 5.56418e-08 5.7798L 0.557604 3.22308C 0.600633 3.02529 0.673637 2.702 0.719338 2.50479L 0.71934 2.50484Z"/>
<path id="path27_fill" d="M 5.34677 -1.73501e-07L 1.24709 -1.73501e-07C 1.03966 -1.73501e-07 0.83282 0.161355 0.786534 0.357983L 0.397788 2.02995L 0.00904255 3.70252C -0.0366583 3.89915 0.0954003 4.0605 0.302832 4.0605L 4.43436 4.0605C 4.6415 4.0605 4.84744 3.89915 4.89195 3.70193L 5.26764 2.02995L 5.64333 0.359144L 5.64333 0.35867C 5.68755 0.161455 5.55431 9.47099e-05 5.34687 9.47099e-05L 5.34677 -1.73501e-07Z"/>
<path id="path28_fill" d="M 1.20246 0.000473622L 1.20246 1.08438e-07L -3.60559e-07 5.42068L 1.20246 0.000473622L 1.20246 0.000473622Z"/>
<path id="path29_fill" d="M 0.00170173 0.000560554C 0.00170173 0.000560554 2.06832 0.0265911 3.38204 0.0265911C 2.38406 0.0265911 0.735871 0.00868219 -8.53174e-09 2.90325e-07C 0.000729299 2.90325e-07 0.00121551 0.000473804 0.00194482 0.000473804L 0.00170173 0.000560554Z"/>
<path id="path30_fill" d="M 0.580456 2.38564e-07L -1.73602e-07 2.50484L 0.580456 2.38564e-07Z"/>
<path id="path31_fill" d="M 11.9129 1.22897e-07L 7.78093 1.22897e-07C 7.5738 1.22897e-07 7.36666 0.16136 7.32096 0.358575L 6.7405 2.86342L 6.16066 5.36826C 6.11496 5.56547 6.04195 5.88877 5.99892 6.08655L 5.44132 8.64327L 4.88401 11.2C 4.84068 11.3972 4.75165 11.7159 4.68518 11.9073C 4.68518 11.9073 3.91333 14.1454 2.6156 14.12C 2.5604 14.1188 2.50669 14.1183 2.45357 14.117C 1.82474 14.1055 1.33066 14.0968 1.33066 14.0968L 1.32968 14.0968C 1.12284 14.0938 0.914805 14.2512 0.866452 14.4473L 0.437935 16.2025L 0.0100017 17.9572C -0.0380718 18.1532 0.0919078 18.3152 0.297859 18.3187C 1.03383 18.3273 2.68199 18.3452 3.6799 18.3452C 6.92143 18.3452 8.6302 16.5952 9.72562 11.5591L 11.0076 5.77934L 12.2101 0.358659C 12.2537 0.161448 12.1198 8.32589e-05 11.9127 8.32589e-05L 11.9129 1.22897e-07Z"/>
<path id="path32_fill" d="M 0.306167 14.5469C 0.0990315 14.5469 -0.0353961 14.385 0.00821651 14.1872L 3.11653 -5.56649e-08"/>
<path id="path33_fill" d="M 2.96756e-07 6.0553L 1.25706 3.18085e-07L 2.96756e-07 6.0553Z"/>
<path id="path34_fill" d="M 0.0536256 7.27323C 0.0284037 7.17433 0.0432231 6.93202 0.0871591 6.73422L 1.56233 -1.93743e-07L 0.00822195 7.09334C -0.0354004 7.29113 0.0990271 7.45308 0.306165 7.45308L 0.683653 7.45308C 0.476219 7.45308 0.0785754 7.37211 0.053633 7.27322L 0.0536256 7.27323Z"/>
<path id="path35_fill" d="M 0.58252 0.639073C 0.46975 0.683605 0.207418 0.720042 2.97943e-06 0.720042L 0.377462 0.720042C 0.584597 0.720042 0.788162 0.558105 0.829124 0.359736L 0.903907 -2.42902e-07C 0.86266 0.197791 0.69559 0.594538 0.582528 0.639073L 0.58252 0.639073Z"/>
<path id="path36_fill" d="M 7.23372e-05 2.67256L 0.555006 4.48211e-07C 0.554763 0.00165866 0.55452 0.00405106 0.554034 0.00521181L -1.85176e-06 2.67256L 7.23372e-05 2.67256Z"/>
<path id="path37_fill" d="M 0.119307 -3.90378e-07L 0.290528 0.689388C 0.337714 0.886599 0.206843 1.0468 -3.38539e-06 1.04737"/>
<path id="path38_fill" d="M -2.96756e-07 2.66782L 0.55345 -2.31335e-07L -2.96756e-07 2.66782Z"/>
<path id="path39_fill" d="M -5.93512e-07 -1.51813e-07L 0.169447 0.706159L -5.93512e-07 -1.51813e-07Z"/>
<path id="path40_fill" d="M 1.54076e-06 3.41972C 0.0412536 3.22193 0.10951 2.90153 0.152542 2.70548L 0.745149 3.1664e-07L 0.0738938 3.06461L 1.54076e-06 3.4197L 1.54076e-06 3.41972Z"/>
<path id="path41_fill" d="M 1.60426 5.42191e-08C 1.56301 0.190853 1.51019 0.432011 1.47517 0.591649L -2.40016e-06 7.32634L 1.55411 0.232528L 1.60426 3.57485e-05L 1.60426 5.42191e-08Z"/>
<path id="path42_fill" d="M 17.6486 3.76382L 17.4774 3.07444L 17.308 2.36828L 17.2222 2.01086C 16.8866 0.740248 15.9013 0.00691691 13.7621 0.00691691L 10.4316 0.00345864L 7.36438 -8.96423e-08L 3.91306 -8.96423e-08C 3.70592 -8.96423e-08 3.50085 0.161355 3.45814 0.359144L 3.4579 0.359144L 3.30536 1.06182L 3.12524 1.89173L 3.07509 2.12422L 1.52098 9.21804L 0.0458097 15.9523C 0.00189319 16.15 -0.0129505 16.3924 0.0122762 16.4913C 0.0371942 16.5902 0.434867 16.6711 0.642282 16.6711L 3.75593 16.6711C 3.96337 16.6711 4.22571 16.6347 4.33846 16.5902C 4.45152 16.5456 4.61858 16.1489 4.65984 15.9511L 5.21329 13.2833L 5.76732 10.6159C 5.76756 10.6147 5.7678 10.6125 5.76829 10.6107L 5.84218 10.2556L 6.51344 7.19101L 7.10637 4.48434C 7.15029 4.28771 7.35445 4.12693 7.56128 4.12636L 17.3583 4.12174C 17.5652 4.12127 17.696 3.96096 17.6488 3.76376L 17.6486 3.76382Z"/>
<path id="path43_fill" d="M 17.4268 0.00754273C 17.2193 0.00896405 16.8801 0.0102196 16.6727 0.0102196L 13.5369 0.0102196C 13.3295 0.0102196 13.0639 0.146709 12.947 0.313553L 6.01295 10.2123C 5.89573 10.3795 5.76219 10.3546 5.7162 10.158L 5.20607 7.97708C 5.16008 7.77987 4.95235 7.6191 4.7452 7.6191L 0.287425 7.6191C 0.0799932 7.6191 -0.042851 7.77756 0.0138162 7.97189L 2.01129 14.7904C 2.06826 14.9848 2.07242 15.304 2.02109 15.4995L 1.15041 18.7996C 1.09878 18.9956 1.22638 19.1558 1.43382 19.1558L 5.83957 19.1558C 6.04671 19.1558 6.25858 18.9956 6.30993 18.7996L 7.18091 15.4995C 7.23225 15.304 7.37648 15.0114 7.50142 14.85L 18.7585 0.291194C 18.8835 0.129838 18.8158 -0.00145655 18.6087 1.21526e-05L 17.427 0.0075215L 17.4268 0.00754273Z"/>
<path id="path44_fill" d="M 12.0236 6.35662L 12.0233 6.35257C 11.9972 6.57176 11.7898 6.73254 11.5826 6.73254L 5.93097 6.73254C 5.7357 6.73254 5.63628 6.60299 5.66506 6.44337C 5.66676 6.43875 5.66749 6.4347 5.67041 6.43065C 5.67041 6.43065 5.66846 6.43112 5.66686 6.43231C 5.66807 6.42593 5.66808 6.42018 5.6699 6.41381C 5.6699 6.41381 5.6806 6.37506 5.69573 6.32011C 6.23551 4.9217 7.33501 4.00388 9.40134 4.00388C 11.7276 4.00388 12.1817 5.1114 12.0237 6.35655L 12.0236 6.35662ZM 10.3656 1.26511e-07C 3.11117 1.26511e-07 1.39219 4.29073 0.427806 8.62126C -0.536655 13.0352 -0.45356 17.1622 7.05308 17.1622L 7.31957 17.1622C 7.34329 17.1617 7.36765 17.1617 7.39139 17.1617L 7.8757 17.1617C 7.90478 17.1613 7.93386 17.1613 7.96354 17.1613C 8.03832 17.1613 8.11399 17.1608 8.18966 17.1608L 8.24278 17.1608C 8.53983 17.1603 8.84135 17.1589 9.14343 17.1578L 9.15858 17.1578C 11.1412 17.1503 13.1294 17.1359 13.9348 17.1295C 14.1408 17.1265 14.3422 16.9647 14.3847 16.7686L 14.6886 15.3211L 14.7476 15.0394L 15.1103 13.3131C 15.1518 13.1153 15.0162 12.9533 14.8088 12.9533L 8.06 12.9533C 5.37591 12.9533 4.57878 12.2582 4.87244 10.2149L 15.6606 10.2149L 15.6596 10.2161C 15.6624 10.2161 15.6647 10.2149 15.667 10.2149C 15.8386 10.212 15.997 10.0969 16.0599 9.94368C 16.0718 9.91419 16.0819 9.88353 16.086 9.85172L 16.0848 9.85291C 17.6867 3.96532 17.2273 0.00030782 10.3651 0.00030782L 10.3656 1.26511e-07Z"/>
<path id="path45_fill" d="M 15.319 10.5839L 15.2169 10.9361C 15.2169 10.9373 15.2167 10.9373 15.2167 10.9373L 14.4021 13.7503L 13.5878 16.5628C 13.5314 16.7572 13.3159 16.9162 13.1082 16.9162L 8.79653 16.9162C 5.52607 16.9162 4.72967 14.4237 5.52607 10.7472C 6.32228 6.98686 7.88351 4.64926 11.1024 4.41261C 15.5011 4.08931 16.3811 7.10412 15.319 10.584L 15.319 10.5839ZM 18.2758 16.6998C 18.2758 16.6998 20.3086 11.8903 20.7703 9.11209C 21.4024 5.3932 19.4916 0 12.111 0C 4.77198 0 1.58539 5.14921 0.369391 10.7468C -0.846414 16.385 0.746565 21.3298 8.04341 21.2893L 13.7998 21.2684L 19.1799 21.2493C 19.3871 21.2477 19.5989 21.0874 19.6518 20.8925L 20.5889 17.4091C 20.6412 17.2136 20.5145 17.0528 20.3073 17.0517L 19.409 17.0464L 18.5111 17.0412C 18.3348 17.0401 18.2339 16.929 18.2553 16.7816C 18.2591 16.755 18.2654 16.7278 18.2772 16.6994L 18.2758 16.6998Z"/>
<path id="path46_fill" d="M 0.495004 0.240583C 0.495004 0.373602 0.384315 0.481757 0.247502 0.481757C 0.110995 0.481757 1.18702e-08 0.373609 1.18702e-08 0.240583C 1.18702e-08 0.107566 0.110988 -2.76156e-07 0.247502 -2.76156e-07C 0.384305 -2.76156e-07 0.495004 0.107571 0.495004 0.240583Z"/>
</defs>
</svg>
