<svg width="120" height="120" viewBox="0 0 120 120" version="1.1" xmlns="http://www.w3.org/2000/svg" xmlns:xlink="http://www.w3.org/1999/xlink">
<title>js</title>
<desc>Created using Figma</desc>
<g id="Canvas" transform="translate(-1362 -341)">
<g id="js">
<g id="Ellipse">
<use xlink:href="#path0_fill" transform="translate(1362 341)" fill="#CBDC3D"/>
</g>
<g id="Unofficial_JavaScript_logo">
<g id="Group">
<g id="Vector">
<use xlink:href="#path1_fill" transform="matrix(0.1 0 0 -0.1 1422.33 422.593)" fill="#2D3940"/>
</g>
<g id="Vector">
<use xlink:href="#path2_fill" transform="matrix(0.1 0 0 -0.1 1392 422.617)" fill="#2D3940"/>
</g>
</g>
</g>
</g>
</g>
<defs>
<path id="path0_fill" d="M 120 60C 120 93.1371 93.1371 120 60 120C 26.8629 120 0 93.1371 0 60C 0 26.8629 26.8629 0 60 0C 93.1371 0 120 26.8629 120 60Z"/>
<path id="path1_fill" d="M 137.114 425.228C 104.33 422.626 76.8363 410.831 56.368 390.536C 35.2925 369.634 25.2318 344.135 25.2318 311.785C 25.2318 263.389 45.0931 229.564 89.4122 202.765C 100.687 196 116.038 188.628 142.578 177.179C 178.744 161.655 192.188 154.282 200.774 145.089C 211.355 133.727 214.304 115.601 207.626 101.724C 206.325 99.0353 202.942 94.5253 199.907 91.4898C 189.672 81.1689 173.541 75.7049 153.506 75.7049C 119.681 75.7049 94.4426 89.5817 74.1477 119.59C 71.3723 123.58 68.8572 126.876 68.5102 126.876C 67.7297 126.876 1.72794 88.8011 0.340253 87.5002C -0.52705 86.7196 0.166792 84.8983 3.54927 79.3475C 29.9153 34.9416 71.1121 8.92256 126.793 1.46375C 141.364 -0.531042 168.684 -0.444312 182.647 1.46375C 217.686 6.40738 243.966 18.0292 264.347 37.8037C 286.03 58.7057 296.698 85.7656 296.698 119.677C 296.698 141.36 293.142 158.272 285.076 175.011C 279.525 186.459 273.974 194.178 264.434 203.892C 246.134 222.452 222.456 236.503 175.188 256.798C 139.456 272.149 127.487 278.74 119.594 287.153C 112.049 295.219 108.84 304.673 109.534 316.468C 110.141 325.835 112.743 332.166 118.467 338.324C 126.706 347.257 136.247 350.987 150.991 350.9C 167.73 350.9 178.571 346.564 189.586 335.462C 193.489 331.646 198.519 325.488 200.861 321.759C 203.549 317.509 205.544 315.167 206.238 315.427C 208.493 316.381 271.546 357.145 271.546 357.752C 271.546 358.099 268.337 363.129 264.434 369.027C 256.108 381.516 241.103 397.127 230.783 403.979C 211.702 416.642 191.32 423.146 164.434 425.141C 151.251 426.182 149.516 426.182 137.114 425.228Z"/>
<path id="path2_fill" d="M 170.425 267.874L 170.165 114.535L 168.257 107.337C 165.742 97.8829 162.793 92.2455 157.589 87.0417C 150.304 79.7563 140.937 76.7208 125.325 76.634C 103.036 76.5473 89.6791 86.0009 74.1544 112.54C 71.6392 116.703 69.3842 120.086 69.124 119.999C 68.7771 119.826 53.0789 110.372 34.2585 99.0104L 0 78.1952L 2.60191 72.9913C 18.1266 42.0286 45.013 18.6115 77.3634 7.85692C 111.535 -3.50474 155.421 -2.46398 187.598 10.4588C 226.193 26.0703 248.829 58.3339 254.814 106.296C 255.334 111.153 255.681 165.359 255.681 267.354L 255.681 421.127L 213.183 421.127L 170.772 421.127L 170.425 267.874Z"/>
</defs>
</svg>
