<svg width="32" height="31" viewBox="0 0 32 31" version="1.1" xmlns="http://www.w3.org/2000/svg" xmlns:xlink="http://www.w3.org/1999/xlink">
<title>linkedin-logo</title>
<desc>Created using Figma</desc>
<g id="Canvas" transform="translate(-805 -96)">
<g id="linkedin-logo">
<g id="Group">
<g id="LinkedIn">
<use xlink:href="#path0_fill" transform="translate(805 96)" fill="#626D73"/>
</g>
</g>
</g>
</g>
<defs>
<path id="path0_fill" d="M 32 19.0061L 32 31L 25.1414 31L 25.1414 19.8094C 25.1414 16.9982 24.1493 15.0797 21.6667 15.0797C 19.7716 15.0797 18.6438 16.3726 18.1476 17.6233C 17.9667 18.0704 17.9201 18.6928 17.9201 19.3186L 17.9201 31L 11.0592 31C 11.0592 31 11.1516 12.0467 11.0592 10.083L 17.9194 10.083L 17.9194 13.0479C 17.9055 13.0701 17.8874 13.094 17.8744 13.1155L 17.9194 13.1155L 17.9194 13.0479C 18.8309 11.6247 20.4587 9.59163 24.1021 9.59163C 28.6161 9.59155 32 12.5812 32 19.0061ZM 3.88233 -2.9348e-08C 1.53521 -2.9348e-08 0 1.56078 0 3.61326C 0 5.621 1.49079 7.22915 3.79127 7.22915L 3.8371 7.22915C 6.22967 7.22915 7.71764 5.62131 7.71764 3.61326C 7.67255 1.56078 6.22967 -2.9348e-08 3.88233 -2.9348e-08ZM 0.40748 31L 7.26582 31L 7.26582 10.083L 0.40748 10.083L 0.40748 31Z"/>
</defs>
</svg>
