<svg width="32" height="31" viewBox="0 0 32 31" version="1.1" xmlns="http://www.w3.org/2000/svg" xmlns:xlink="http://www.w3.org/1999/xlink">
<title>linkedin</title>
<desc>Created using Figma</desc>
<g id="Canvas" transform="translate(-835 -102)">
<g id="linkedin">
<g id="Group">
<g id="LinkedIn">
<use xlink:href="#path0_fill" transform="translate(835 102)" fill="#626D73"/>
</g>
</g>
</g>
</g>
<defs>
<path id="path0_fill" d="M 32 18.4651L 32 30.1176L 25.1414 30.1176L 25.1414 19.2455C 25.1414 16.5144 24.1493 14.6504 21.6667 14.6504C 19.7716 14.6504 18.6438 15.9066 18.1476 17.1217C 17.9667 17.5561 17.9201 18.1607 17.9201 18.7688L 17.9201 30.1176L 11.0592 30.1176C 11.0592 30.1176 11.1516 11.7038 11.0592 9.79603L 17.9194 9.79603L 17.9194 12.6765C 17.9055 12.6981 17.8874 12.7213 17.8744 12.7422L 17.9194 12.7422L 17.9194 12.6765C 18.8309 11.2938 20.4587 9.31862 24.1021 9.31862C 28.6161 9.31855 32 12.2231 32 18.4651ZM 3.88233 -2.85126e-08C 1.53521 -2.85126e-08 0 1.51635 0 3.51041C 0 5.46101 1.49079 7.02339 3.79127 7.02339L 3.8371 7.02339C 6.22967 7.02339 7.71764 5.46131 7.71764 3.51041C 7.67255 1.51635 6.22967 -2.85126e-08 3.88233 -2.85126e-08ZM 0.40748 30.1176L 7.26582 30.1176L 7.26582 9.79603L 0.40748 9.79603L 0.40748 30.1176Z"/>
</defs>
</svg>
