<svg width="17" height="16" viewBox="0 0 17 16" version="1.1" xmlns="http://www.w3.org/2000/svg" xmlns:xlink="http://www.w3.org/1999/xlink">
<title>linkedin-logo</title>
<desc>Created using Figma</desc>
<g id="Canvas" transform="translate(-835 -102)">
<g id="linkedin-logo">
<g id="Group">
<g id="LinkedIn">
<use xlink:href="#path0_fill" transform="translate(835 102)" fill="#626D73"/>
</g>
</g>
</g>
</g>
<defs>
<path id="path0_fill" d="M 17 9.80959L 17 16L 13.3563 16L 13.3563 10.2242C 13.3563 8.77325 12.8293 7.78305 11.5105 7.78305C 10.5037 7.78305 9.90451 8.45037 9.64092 9.0959C 9.5448 9.32667 9.52006 9.64787 9.52006 9.97091L 9.52006 16L 5.87518 16C 5.87518 16 5.92427 6.21766 5.87518 5.20414L 9.5197 5.20414L 9.5197 6.73441C 9.51231 6.74585 9.50271 6.7582 9.49575 6.76929L 9.5197 6.76929L 9.5197 6.73441C 10.0039 5.99985 10.8687 4.95052 12.8042 4.95052C 15.2023 4.95048 17 6.49352 17 9.80959ZM 2.06249 -1.51473e-08C 0.81558 -1.51473e-08 0 0.805563 0 1.86491C 0 2.90116 0.791985 3.73117 2.01411 3.73117L 2.03846 3.73117C 3.30951 3.73117 4.1 2.90132 4.1 1.86491C 4.07604 0.805563 3.30951 -1.51473e-08 2.06249 -1.51473e-08ZM 0.216474 16L 3.85997 16L 3.85997 5.20414L 0.216474 5.20414L 0.216474 16Z"/>
</defs>
</svg>
