<svg width="120" height="120" viewBox="0 0 120 120" version="1.1" xmlns="http://www.w3.org/2000/svg" xmlns:xlink="http://www.w3.org/1999/xlink">
<title>sass</title>
<desc>Created using Figma</desc>
<g id="Canvas" transform="translate(-1662 -341)">
<g id="sass">
<g id="Ellipse">
<use xlink:href="#path0_fill" transform="translate(1662 341)" fill="#CBDC3D"/>
</g>
<g id="sass-1">
<g id="Vector">
<use xlink:href="#path1_fill" transform="translate(1681 370)" fill="#2D3940"/>
</g>
</g>
</g>
</g>
<defs>
<path id="path0_fill" d="M 120 60C 120 93.1371 93.1371 120 60 120C 26.8629 120 0 93.1371 0 60C 0 26.8629 26.8629 0 60 0C 93.1371 0 120 26.8629 120 60Z"/>
<path id="path1_fill" d="M 71.2038 35.6021C 68.3118 35.6185 65.8075 36.313 63.7072 37.3472C 62.9317 35.8123 62.1562 34.4712 62.0271 33.4697C 61.8817 32.3064 61.704 31.5954 61.8817 30.2061C 62.0593 28.8165 62.8671 26.8454 62.8671 26.6838C 62.8508 26.5384 62.6892 25.8275 61.0252 25.8114C 59.3613 25.7952 57.9232 26.1345 57.7617 26.5707C 57.6001 27.0069 57.277 28.0086 57.0669 29.0426C 56.7761 30.5613 53.7387 35.9414 52.01 38.7688C 51.4445 37.6702 50.9598 36.7008 50.8627 35.9251C 50.7175 34.762 50.5396 34.051 50.7175 32.6617C 50.8952 31.2721 51.703 29.3011 51.703 29.1396C 51.6869 28.9942 51.5253 28.2833 49.8613 28.2671C 48.1971 28.251 46.7593 28.5903 46.5977 29.0265C 46.4362 29.4627 46.2585 30.4967 45.903 31.4984C 45.5636 32.5001 41.5245 41.4831 40.4743 43.8258C 39.9411 45.0213 39.4728 45.9746 39.1333 46.6208C 38.794 47.2671 39.1172 46.6693 39.0849 46.7339C 38.794 47.2832 38.6325 47.5902 38.6325 47.5902L 38.6325 47.6065C 38.4063 48.0104 38.1639 48.398 38.0507 48.398C 37.9699 48.398 37.8083 47.3155 38.083 45.8293C 38.6808 42.711 40.1349 37.848 40.1189 37.6703C 40.1189 37.5895 40.3934 36.7331 39.1816 36.297C 38.0022 35.8608 37.5823 36.5878 37.4852 36.5878C 37.3883 36.5878 37.3075 36.8463 37.3075 36.8463C 37.3075 36.8463 38.6162 31.3695 34.8033 31.3695C 32.4121 31.3695 29.1162 33.9707 27.4844 36.3457C 26.4504 36.9111 24.2531 38.1065 21.9266 39.3831C 21.038 39.8678 20.1171 40.3848 19.2446 40.8533L 19.0671 40.6591C 14.4464 35.7314 5.89962 32.2416 6.25506 25.6175C 6.38431 23.2102 7.22444 16.8607 22.6701 9.17027C 35.3206 2.86928 45.4506 4.59801 47.2115 8.44324C 49.7158 13.9364 41.7991 24.1473 28.648 25.6175C 23.6395 26.183 21.0058 24.2442 20.3436 23.5172C 19.6489 22.7578 19.5519 22.7255 19.2934 22.8709C 18.8734 23.0971 19.1319 23.7757 19.2934 24.1796C 19.6812 25.1974 21.2968 27.0069 24.0434 27.9117C 26.4506 28.7034 32.3316 29.1396 39.4405 26.393C 47.4056 23.3071 53.6258 14.7442 51.8001 7.58695C 49.9421 0.300411 37.8571 -2.09074 26.4346 1.96452C 19.6326 4.38798 12.2652 8.16858 6.96594 13.1286C 0.664943 19.0095 -0.336754 24.1473 0.0833128 26.2799C 1.55371 33.8896 12.039 38.8496 16.2397 42.5171C 16.0297 42.63 15.8358 42.7431 15.6581 42.8402C 13.5577 43.8741 5.56033 48.0587 3.55694 52.4854C 1.29504 57.4939 3.91238 61.0969 5.65727 61.5816C 11.0535 63.0842 16.579 60.3861 19.5679 55.9431C 22.5405 51.5 22.1853 45.7322 20.812 43.0987L 20.7633 43.0018L 22.4113 42.0324C 23.4778 41.4023 24.5279 40.8207 25.4487 40.3196C 24.9319 41.7253 24.5601 43.3894 24.3664 45.8128C 24.1402 48.6565 25.3035 52.34 26.8383 53.7941C 27.5169 54.424 28.3247 54.4403 28.8255 54.4403C 30.6028 54.4403 31.4106 52.97 32.2992 51.2091C 33.3978 49.0603 34.3672 46.5722 34.3672 46.5722C 34.3672 46.5722 33.1555 53.3094 36.4675 53.3094C 37.6793 53.3094 38.891 51.7422 39.4403 50.9344L 39.4403 50.9506C 39.4403 50.9506 39.4726 50.9021 39.5372 50.789C 39.605 50.6888 39.6697 50.5864 39.7311 50.4822L 39.7311 50.4499C 40.2158 49.6097 41.2983 47.6871 42.9139 44.5043C 44.9979 40.4006 47.0015 35.2629 47.0015 35.2629C 47.0015 35.2629 47.1954 36.5231 47.7932 38.5911C 48.1484 39.8191 48.9239 41.1599 49.5217 42.4686C 49.037 43.1472 48.7462 43.5351 48.7462 43.5351L 48.7624 43.5513C 48.3748 44.0683 47.9384 44.6177 47.4862 45.1669C 45.8382 47.138 43.8672 49.3839 43.6087 50.0301C 43.3017 50.7893 43.3663 51.3548 43.9641 51.8073C 44.4003 52.1305 45.1758 52.1949 45.9998 52.1305C 47.4862 52.0334 48.5202 51.6619 49.0372 51.4356C 49.845 51.1448 50.7659 50.7085 51.6545 50.0623C 53.2702 48.8669 54.2557 47.1704 54.1588 44.9086C 54.1103 43.6645 53.7064 42.4366 53.2056 41.2734C 53.351 41.0633 53.4965 40.8531 53.6418 40.6271C 56.1945 36.8948 58.1656 32.7913 58.1656 32.7913C 58.1656 32.7913 58.3594 34.0515 58.9572 36.1195C 59.264 37.1696 59.8781 38.3169 60.4275 39.4478C 58.0363 41.4028 56.5338 43.6647 56.0168 45.1511C 55.0635 47.8976 55.8067 49.1417 57.2123 49.4325C 57.8423 49.5618 58.7472 49.2709 59.4256 48.9801C 60.2657 48.7055 61.2836 48.2368 62.2208 47.5422C 63.8365 46.3466 65.3875 44.6825 65.3067 42.4368C 65.2582 41.4028 64.9836 40.3849 64.612 39.4155C 66.6477 38.5754 69.281 38.0907 72.6255 38.4946C 79.8151 39.3348 81.2369 43.8262 80.9624 45.7004C 80.6878 47.5747 79.1852 48.6085 78.6842 48.9317C 78.1833 49.2386 78.0218 49.3519 78.0703 49.5779C 78.1349 49.9174 78.3611 49.901 78.7973 49.8366C 79.3951 49.7395 82.5779 48.3017 82.7071 44.8444C 82.901 40.4008 78.6842 35.5538 71.2038 35.6021ZM 15.755 54.2951C 13.38 56.8963 10.0357 57.8818 8.61389 57.0417C 7.07903 56.1531 7.67666 52.324 10.6011 49.5613C 12.3783 47.881 14.6887 46.33 16.2074 45.3768C 16.5467 45.1667 17.0637 44.8599 17.6776 44.4882C 17.7746 44.4237 17.8392 44.3912 17.8392 44.3912C 17.9523 44.3266 18.0815 44.2458 18.2108 44.165C 19.2933 48.1072 18.2593 51.5647 15.755 54.2951ZM 33.1231 42.4848C 32.2992 44.5043 30.5543 49.6905 29.5041 49.3997C 28.5992 49.1574 28.05 45.2314 29.3262 41.3538C 29.9725 39.3987 31.3458 37.0724 32.1536 36.1675C 33.4624 34.7134 34.884 34.2287 35.2396 34.8265C 35.6597 35.6021 33.6402 41.2246 33.1231 42.4848ZM 47.4539 49.3351C 47.0984 49.513 46.7753 49.6421 46.6299 49.5453C 46.5168 49.4807 46.7751 49.2383 46.7751 49.2383C 46.7751 49.2383 48.5685 47.3157 49.2794 46.4271C 49.6833 45.9103 50.168 45.3125 50.685 44.6337L 50.685 44.8276C 50.6852 47.154 48.4556 48.705 47.4539 49.3351ZM 58.5047 46.8147C 58.2462 46.6208 58.2787 46.023 59.1509 44.1489C 59.4904 43.4057 60.2657 42.1616 61.6067 40.9822C 61.7683 41.4669 61.8654 41.9353 61.8491 42.3717C 61.8331 45.2798 59.765 46.3623 58.5047 46.8147Z"/>
</defs>
</svg>
