<svg width="120" height="120" viewBox="0 0 120 120" version="1.1" xmlns="http://www.w3.org/2000/svg" xmlns:xlink="http://www.w3.org/1999/xlink">
<title>wordpress</title>
<desc>Created using Figma</desc>
<g id="Canvas" transform="translate(-1512 -341)">
<g id="wordpress">
<g id="Ellipse">
<use xlink:href="#path0_fill" transform="translate(1512 341)" fill="#CBDC3D"/>
</g>
<g id="wordpress-logo">
<g id="Group">
<g id="Group">
<g id="Vector">
<use xlink:href="#path1_fill" transform="translate(1564.21 403.413)" fill="#2D3940"/>
</g>
<g id="Vector">
<use xlink:href="#path2_fill" transform="translate(1544.41 389.772)" fill="#2D3940"/>
</g>
<g id="Vector">
<use xlink:href="#path3_fill" transform="translate(1548.95 373.414)" fill="#2D3940"/>
</g>
<g id="Vector">
<use xlink:href="#path4_fill" transform="translate(1585.87 387.764)" fill="#2D3940"/>
</g>
<g id="Vector">
<use xlink:href="#path5_fill" transform="translate(1537 366)" fill="#2D3940"/>
</g>
</g>
</g>
</g>
</g>
</g>
<defs>
<path id="path0_fill" d="M 120 60C 120 93.1371 93.1371 120 60 120C 26.8629 120 0 93.1371 0 60C 0 26.8629 26.8629 0 60 0C 93.1371 0 120 26.8629 120 60Z"/>
<path id="path1_fill" d="M 8.27614 1.32165e-07L 1.7622e-07 24.0496C 2.47216 24.7743 5.08579 25.1742 7.79398 25.1742C 11.0053 25.1742 14.0873 24.6184 16.9529 23.61C 16.8793 23.4916 16.8121 23.3661 16.7573 23.2296L 8.27614 1.32165e-07Z"/>
<path id="path2_fill" d="M 2.25782e-07 11.2261C 2.25782e-07 22.1462 6.34605 31.5823 15.5483 36.0531L 2.38987 9.91239e-07C 0.859662 3.43071 2.25782e-07 7.22737 2.25782e-07 11.2261Z"/>
<path id="path3_fill" d="M 41.668 26.1926C 41.668 22.7836 40.4445 20.4233 39.395 18.5841C 37.9962 16.3119 36.6854 14.3883 36.6854 12.1154C 36.6854 9.57971 38.6083 7.21943 41.3179 7.21943C 41.4406 7.21943 41.5561 7.23458 41.6759 7.24036C 36.7691 2.74572 30.2311 2.25782e-07 23.0485 2.25782e-07C 13.4096 2.25782e-07 4.9306 4.94432 5.94743e-07 12.4344C 0.646732 12.4539 1.25521 12.4676 1.7749 12.4676C 4.66065 12.4676 9.12786 12.1175 9.12786 12.1175C 10.6162 12.028 10.7894 14.2129 9.3047 14.3883C 9.3047 14.3883 7.80986 14.5637 6.14756 14.6518L 16.1914 44.5321L 22.2278 26.4258L 17.9287 14.6511C 16.4433 14.563 15.0365 14.3876 15.0365 14.3876C 13.551 14.301 13.7243 12.0288 15.2105 12.1168C 15.2105 12.1168 19.7672 12.4669 22.4761 12.4669C 25.3611 12.4669 29.8298 12.1168 29.8298 12.1168C 31.3181 12.0288 31.4921 14.2122 30.0052 14.3876C 30.0052 14.3876 28.5089 14.563 26.848 14.6511L 36.8182 44.3047L 39.5697 35.1104C 40.7614 31.295 41.668 28.5536 41.668 26.1926Z"/>
<path id="path4_fill" d="M 10.3376 -8.81101e-08C 10.456 0.877707 10.5238 1.82254 10.5238 2.83667C 10.5238 5.6358 10.002 8.78284 8.42699 12.7174L 2.11464e-06 37.0788C 8.20035 32.2961 13.7185 23.4108 13.7185 13.2356C 13.7192 8.43855 12.4929 3.92875 10.3376 -8.81101e-08Z"/>
<path id="path5_fill" d="M 34.9993 0C 15.6695 0 3.42836e-11 15.6702 3.42836e-11 35C 3.42836e-11 54.3298 15.6695 70 34.9993 70C 54.329 70 69.9986 54.3298 69.9986 35C 69.9986 15.6702 54.329 0 34.9993 0ZM 35.0007 65.6815C 18.0818 65.6815 4.31924 51.9189 4.31924 34.9986C 4.31924 18.081 18.081 4.31852 35.0007 4.31852C 51.9175 4.31852 65.6793 18.0818 65.6793 34.9986C 65.68 51.9175 51.9168 65.6815 35.0007 65.6815Z"/>
</defs>
</svg>
